<svg xmlns="http://www.w3.org/2000/svg" viewBox="0 0 841.89 595.28"><path fill="currentColor" d="M634.25 219.07c-2.17-.54 2.03-2 3.25-1.3-1.55-2.85 3.45-.51 4.79-1.49.49-.35.43-1.8.84-2.4-1.91-.49-3.83-.43-5.63-1.31.55-1.62 4.68.18 5.2-.18.62-.43.47-1.91.44-2.64-.16-4.4-2.06-10.32-2.61-15.14s-1.09-10.98-1.32-16c-.17-3.67.16-7.39.02-11.06-.95-.46-3.39 1.3-3.89.86-1.07-.95 3.51-2.3 3.7-2.58.92-1.36-.94-4.76 1.49-6.3 1.87-1.18 4.38 5.37 5.41 5.46l53.47-4.38-4.22-2.05c-17.84-6.28-36.63-10.78-55.73-10.06-4.72.18-9.56 1.13-14.27 1.31-8.04.3-15.72-1.59-23.82-.88-9.42.82-20.8 3.7-30.17 5.76-27.02 5.93-67.51 17.82-81.38 44.16-4.19 7.96-1.5 7.46-1.63 14.8-.08 4.46-1.83 9.12-2.19 13.42-.74 8.98 2.05 16.12 2.58 24.67.58 9.18-.58 18.96.01 28.13.41 6.36 1.79 14.22 2.65 20.73.51 3.85 1.65 7.64 1.67 11.52-.86.16-1.3-.6-1.53-1.28-.93-2.78-1-7.55-1.47-10.59-.13-.49-1.02-.03-1.37-.5-1.55-2.11.1-8.26.01-10.72-.19-5.43-2.26-12.4-2.59-17.8-.34-5.59 1.69-10.33 1.33-16.05-.63-10.14-3.53-19.57-2.56-29.8.36-3.76 2.05-7.8 2.14-11.73.13-5.82-2.31-7.15.68-13.59 15.23-32.8 70.77-45.35 103.11-51 11.06-1.93 16.22-1.48 27.12-.98 10.92.5 21.87-1.47 32.94-.9 14.76.76 29.37 4.94 43.28 9.53 2.35.78 6.76 3.08 8.77 3.39 2.25.35 4.6-1.63 5.73.08l-3.46.44c-.05.29.22.46.44.64 1.72 1.4 8.64 4.61 11.09 5.8.47.23 3.49 1.5 3.63 1.35l-.43-5.19c.73-.18 2.35.56 2.17-.65-.37-2.4-4.03-7.91-5.64-9.95-3.98-5.02-19.24-16-25.3-17.99-3.47-1.14-5.38-.86-8.67-1.29-6.7-.87-13.35-2.12-20.13-1.73.08-.59.59-.76 1.1-.84 5.18-.88 24.66 1.59 29.75 3.55 4.69 1.81 19.25 12.03 22.79 15.74 7.24 7.61 10.15 22.06 16.71 27.88.87.78 3.13 1.01 2.16 2.61l-1.5-.44c.37 2.27-.37 4.57-.45 6.69-.85 21.76 2.65 43.55 1.31 65.38-.67 10.91-3.61 22.67-4.75 33.77-.82 7.94-1.52 16.24-1.75 24.22-.6 20.29 3.26 41.76 5.64 61.92 1.15 9.75 2.74 20.94 1.68 30.68-1.55 14.28-6.58 30.17-5.57 44.63.2 2.88 1.31 6.23 1.33 9.09 0 .95-1.65 9.92-1.12 9.74.69-.74 5.61-2.28 5.85-2.6.21-.28-.87-1.95-.9-2.81-.09-2.33 1.23-5.51.9-8 .72-.11.47 1.05.45 1.53-.15 2.61-.74 4.79-.02 7.56 1.75.09 2.95-1.43 4.57-1.71s1.27.87.42 1.72c-2.17 2.16-11.51 5.59-12.15 6.92-.31.65-.07 2.42.34 2.92.69.84 2.56 0 3.57.07 2.34.15 4.42.78 6.89.44 3.15-.44 9.02-5.18 10.45-5.16 1.32.02 2.03 3.51 1.96 4.55-.08 1.38-2.2 3.94-3.47 4.35-2.35.75-3.83-.68-6.08-.67.07 4.55 1.29 9.61 3.89 13.42-.71.67-2.43-2.28-2.67-2.73-1-1.86-3.27-11.22-4.1-11.5-1.17-.4-5 1.56-6.37 2.18s-8.74 4.44-9.18 5.13c-.55.87 2.49 4.89 3.07 6.05 3.13 6.28 7.89 20.25 7.13 27.07-.26 2.32-2.49 8.78-4.05 10.45s-8.96 6.31-11.24 7.59c-5.8 3.25-12.68 4.62-18.47 7.93 9.92 5.17 21.96-4.22 29.43-10.39.34-.28.86-1.14 1.3-.43-6.45 5.99-17.21 15.08-26.58 14.02-2.26-.26-4.6-1.7-6.91-1.65-3.95.09-11.07 3.1-15.43 4.08-26.34 5.95-55.59 6.3-82.49 5.86-26.71-.44-56.63.43-81.3-11.34-9.01-4.3-8.84-6.03-15.22-12.49-1.7-1.71-7.99-5.83-8.27-7.76-.09-.65.33-.92.9-.89 1.52 2.9 4.68 4.67 6.94 6.91 5.54 5.49 7.27 8.89 14.64 12.63 27.45 13.96 64.42 11.65 94.46 12.03 10.01.13 20.19.33 30.28-.42 10.34-.76 20.65-2.79 30.96-3.9-.05-.62-.64-.68-1.07-.88-2.09-.97-4.22-1.51-6.25-2.84-5.01-3.27-6.19-8.89-12.16-10.78-7.74-2.45-21.87.07-27.5-3.24-5.79-3.41-3.22-10.66 2.73-12.01 10.14-2.31 17.45.73 26.86 2.34 14.25 2.44 31.79-7.21 42.08-16.52 6.51-5.9 13.12-13.29 18.41-20.11 1.46-1.88 4.54-.59 1.42-4.92-1.92-2.66-4.84-3.8-7.25-5.74-4.24-3.42-8.17-7.14-12.81-10.06-2.81 2.48-4.43 5.95-6.49 9.01-1.43-.79-.86-2.51-1.49-3.59-.85-1.48-6.73-2.6-8.52-2.84-1.51-.21-6.48-.75-7.66-.4-.66.2-1.66 1.58-1.53 2.23.18.91 2.25 1.22 1.59 3.43-.23.76-2.86 2.95-3.38 2.48-.84-3.49 1.6-4.81-3.23-5.21-6.4-.53-12.23.26-18.87-1.04-9.75-1.92-17.58-7.94-27.58-10.52-2.93-.75-6 0-8.09-3.16-3.31-4.99 2.18-12.62 4.09-17.29-5.41-.9-10.87.48-15.58-3.03-.35.43 2.19 3.8-1.03 3.05-.45-.1-2.44-4.3-2.73-4.37-1.23-.3-6.53-.08-8.17 0-5.72.3-11.55 1.5-17.28 1.77-7.12.33-14.55-.4-21.66-.01-23.01 1.26-56.62 12.01-73.16 28.57-14.64 14.66-9.15 32.97 4.54 45.67 5.99 5.55 24.15 16.96 31.94 18.32.83.14 1.75-.48 2.26-.17.69.41 2.07 2.86.31 2.76-3.96-1.81-8.25-2.82-12.16-4.74-12.47-6.12-32.69-18.19-36.17-32.65-5.38-22.32 9.12-32.95 26.09-43.12.88-.53 5.67-2.75 5.85-3.02.66-1.06-.44-4.41-.35-5.72.03-.38 1.12-4.03 1.29-4.16 2.67-2-.45 8.84.65 9.1l26.19-9.1h-6.28c-1.63 0-3.94-4.04-5.89-4.93-4.37-2.01-12.92-.93-17.94-1.11-3.87-.14-7.69-1.15-11.69-.9-3.38.21-12.41 3.47-14.64 2.18-.89-.52.26-1.96.58-1.73.04.03-.13.75.29.87 1.95.54 8.34-1.96 11.18-2.19 4.07-.32 8.13.35 12.12.47 5.35.16 16.37-.31 20.88 1.63 3.82 1.65 2.94 5.59 8.98 4.81 1.17-.15 3.8-1.75 4.58-.17.47.95-1.06.33-.86 1.07l7.79-1.3c-.08-1.07-1.4-1.51-1.74-2.05-2.74-4.36-.24-12.16.03-17.19.5-9.41.58-19.19.88-28.58.11-3.47-.86-7.17-.47-10.83.14-1.26 1.3-3.28 1.29-3.46-.06-1.04-4.38-.56-5.4-.65-9.5-.88-19.22-.85-28.52-1.78-10.28-1.03-18.58-7.47-28.62-6.87-2.55.15-7.03 2.1-8.45-.43 4.84-.15 9.57-1.4 14.46-.82 4.96.58 9.89 3.88 14.57 5.35 8.12 2.55 18.5 1.84 27.03 2.4 7.47.5 16.04 1.9 23.4 1.75 4.1-.09 7.68-.49 11.16-2.69 2.32-1.46 3.89-3.9 6.36-4.9 4.67-1.88 11.53-2.22 16.44-4.11-.45.73-1.94 1.48-2.72 1.82-3.74 1.63-7.9 1.87-11.56 3.17-.42.15-.99.05-.87.63 3.37-.32 4.01 4.35 4.33 6.93 2.03-.49 3.63-2.23 5.7-2.73 5.47-1.33 9.4 2.08 13.65 4.81 1.89.73 15.64 3.33 16.11 4.02 1.58 2.29-4.75 4.1-6 4.97s-2.98 3.41-4.38 3.89c-.99.34-1.54-.99-2.57-.67-.26 3.56-1.25 9.57-3.28 12.52-.65.95-2.7 2.23-2.75 3.24-.08 1.51.97 7.71 1.4 9.42.17.67.2 1.9.73 2.3l15.81 3.29c.81-.05 1.04-1.11 1.51-1.78-.78-.59-4.91 2.5-.64-3.03 1.13-.42.2 2.13 2.07 1.65 7.41-5.1 15.97-11.34 24.39-14.58 3.29-1.27 3.54-.74 6.75-.15 5.57-4.16 15.48-6.5 20.69-10.51.77-.59 3.79-3.63 3.9-4.36.23-1.59-2.06-4.51-2.19-6.92-.39-7.3 2.81-13.61 7.2-19.2 2.6-3.31 2.62-4.6 7.05-2.38 6.1 3.05 9.13 9.2 8.24 15.93-.7 5.32-8.4 16.22-14.43 15.39-1.28-.18-3.89-2.19-4.31-2.12-.2.03-2.56 2.79-2.63 2.98-.17.45.26 1.07.14 1.47-.25.83-6.38 2.5-7.6 3.24l-4.9 2.67c3.18-.7 6.22-1.87 9.43-2.47 4.78-.89 14.39-2.32 18.66-.3 5.33 2.51 11.9 20.98 15.96 26.89s9.98 10.42 14.37 15.93c5.72 7.18 1.82 12.56-2.49 19.13-.99 1.51-5.59 6.44-4.66 7.91l21.67 17.32c1.86-3.86 3.27-7.14 5.85-10.61.28-.38.99-.49 1.17-.76.31-.47 1.85-8.69 1.87-9.64.05-3.3-1.13-7.48-1.31-10.8-.66-11.86 2.71-26.45 4.64-38.21 1.07-6.53 1.51-16.32.99-22.82-.15-1.91-1.47-3.62-1.71-5.22-.45-2.96-.09-7.07-.46-10.36-2.05-17.81-6.27-39.47-5.64-57.16.43-11.96 1.6-25.26 3.1-37.15 1.08-8.52 3.37-17.46 3.86-26.01 1.07-18.77-1.61-39.49-1.77-58.44-.04-4.5 1.54-10.11-.66-14.06-2.02-3.62-4.82-3.51-8.2-5.19-.84.08-2.11 7.64-2.3 8.91-1.66 11.2-1.06 23.53-.54 34.57.07 1.41.54 2.7.47 4.1-3.83.84-7.28-.59-11.05-.86-12.37-.88-24.46.34-36.81.01-6.91-.18-13.83-1.25-20.78-.9-1.01.05-6.54.59-6.87.83-.69.5.42 3.08-1.33 3.08s-.91-3.04-1.08-3.04c-1.84 0-6.15.35-7.58 0Zm76.41-51.08c-.22-.73.62-1.85.02-2.37-1.29-1.12-8.1-4.16-9.77-4.16-8.68 0-19.23 2.01-28.14 2.63-3.3.23-6.67-.21-9.97-.01-5.02.29-9.91 1.32-14.92 1.75 0 .76 1.89.48 2.4.45 5.07-.33 10.02-1.08 15.14-.88.52.02 1.61-.33 1.51.43L646 168.07c-1.77.66.26 2.35.15 2.52-.03.04-.61-.1-.88.29-.46.68-.28 2.39-1.49 1-.51-.59-.5-1.66-.89-2.14-1.72-2.13-1.99 2.33-1.97 3.67.07 4.57.5 10.11.9 14.71.72 8.24 2.43 16.27 3.47 24.46 1.59-.25 4.39.41 5.77-.07 2.85-.98.61-9.63 1.09-11.99-1.57-.13-6.98-2.9-3.19-3.13 2.93-.18 6.11 3.18 8.67 4.35.74-.04 2.23-9.45 5.61-9.53 1.26-.03.4 1.06.66 1.32.35.34 2.94-1.38 2.14.63s-3.04.26-3.23.28c-.84.05-3.49 8.1-3.04 9.04 1.39 2.92 3.15-2.05 4.77-1.72 1.03.4.49 2.42.66 2.6.67.72 12.05-1.54 14.05-.41 3.32.78 12.02-1.65 14.32.4.89.79 1.55 3.47 3.01 3.48.28 0 1.41-3.09 3.81-4 4.04-1.52 6.86.11 6.81 4.42 1.97-.74 3.09-2.51 5.45-2.56 1.25-.03 4.98 1.27 2.89 2.47-1.97 1.13-5.33-.3-6.62 2.25l8.22 1.3c.31-7.62-.42-15.57 0-23.16.34-5.98 2.05-11.72 2.6-17.66-1.36-1.15-5.87-4.12-7.49-3.7-.58.15-.82 1.02-1.61.79Zm-67.11-2.6c.15-.65-.25-.95-.51-1.43-.29-.53-1.09-1.76-1.64-2.03l-.44 3.46h2.6Zm83.12 6.93-4.32-7.79c.36 1.03-.43 4.74-.21 5.22s4.05 3.01 4.54 2.57Zm-71.86 36.79c.96 1.2 2.78-4.31 1.95-5.62-.28-.45-1.38-.72-1.74-1.29-1.65 1.9.08 4.69-.21 6.92Zm43.73-.43c2.5-.25 8.18 1.33 6.17-2.93-1.51-3.19-6.46.09-6.17 2.93m-19.92-3.46c-1.18.49-5.73-1.23-6.06.22-.22 1 1.54 1.19 2.04 1.64 1.12 1.02 1.96 3.07.56 4.2.73-.12 5.01-.25 5.2-.43.67-.65-2.08-2.9-2.61-3.23-.71-.44-3-.84-3.01-1.31-.03-1.21 3.63-.08 3.89-1.08Zm14.72 2.59c-.96-2.56-1.86-3.47-4.76-3.02-.83.7 4.34 3.39 4.76 3.02m-29.87 3.9c.28.18 5.67 0 6.71 0 .16 0 .65-.57 1.09-.44-1.12-1.97-.05-4.26-2.4-5.18-5.54-2.15-2.99.93-2.9 3.36.07 1.89-1.27 1.4-2.02.27-.31-.47-1.2-5.39-2.13-2.48-.67 2.1.09 2.55 1.39 3.65.26.22.21.79.26.82m21.21-5.19c-1.44.01-3.08-.26-4.32.64l2.81 2.81c1.48-1.13-.55-.84-.65-1.72.91-.16 2.3-.54 2.16-1.73m2.6 2.59h-1.29v.86h1.29zm13.85 1.74c-1.63 0-3.3.24-4.91.5-.71.11-2.61.16-2.88.79l2.32-.05zm11.25 1.3-7.57-.43-4.98 1.29c3.68-.19 7.35-.28 11.04-.43.53-.02 1.61.33 1.51-.43m-23.37.43c-1.11.06-3.31-.37-3.89.86zm-6.49.43-5.63.86c1.69-.3 4.56.81 5.63-.86m-11.69.87c-3.19-.18-25.2-1.11-25.91.06-.29.48.05 1.86-.06 2.54 8.18-.6 16.22-1.84 24.47-2.17.53-.02 1.61.33 1.51-.43Zm46.3.02c-15.82.02-31.63.8-47.33 2.63l-3.73.81c5.17.23 10.67.92 15.82.89 5.95-.04 11.15-.67 17.3-.46s12.29.4 18.39 1.3zm-49.77 158.41c.61.58-4.43 8.74-4.26 9.67.37 1.99 4.79 2.75 6.55 2.35 3.15-.72 8.48-8.18 9.61-11.17 2.39-6.35.45-12.69-5.44-16.19-4.84-2.88-5.68-.94-8.54 3.07-2.06 2.88-3.68 6.09-4.84 9.45 2.04.23 2.61-3.01 4.32-3.68-.19 1.98-6.55 6.94-3.04 8.04 2.64.83 3.39-1.25 5.64-1.54m-101.3 1.72c-.38-.35.81-1.33.87-1.95.12-1.19-1.06-6.79-2.74-6.64-.67.06-2.23 1.21-2.02 2.1.16.16 3.5-1.4 2.59.65-.39.87-4.05 1.3-5.17 2.19-1.94 1.54-5.19 8.83-5.54 11.34-.7 5.08.8 7.5 2.92 11.79.67.18.72-.19 1.08-.43.8-.54 6.55-5.44 6.7-5.85.35-.91-1.18-.59-1.77-1.25-.98-1.09.24-1.62.27-2.2.05-.99-.66-2.17 0-3.25 1.06-1.76 6.72-1.68 4.13-6.22-.32-.56-1.2-.17-1.32-.28m-5.19-8.21-6.49 4.32c3-.4 5.37-1.38 6.49-4.32m16.01 3.46c-.86.24-3.08-.56-3.46.42.86-.24 3.08.56 3.46-.42m-39.38 11.25c2.98-.81 2.91-3.86 4.52-5.65.94-1.04 4.03-2.3 4.35-3.01.59-1.31-2.24-.36-3.03-.4-2.67-.13-5.38-1.65-6.43 1.77-.7 2.29.22 4.96.58 7.29Zm46.31 1.73c1.19-.14 4.67 0 4.78-1.51.16-2.26-1.93-6.53-4.04-7.67-1.9-1.03-10.35-2.42-12.44-1.87-.43.11-3.56 1.74-3.68 1.94-.15.25.63 3.91.91 3.94 4.01-.57 7.45-2.61 11.01-4.34.59.59-1.87 2.4-2.29 2.68-2.27 1.51-5.42 2.41-8.08 2.96l.88 3.86c2.6.22 2.41-1.18 3.86-2.58l.22 2.59 1.95-2.59-1.29 3.02c1.64.4 3.69 1.2 5.34.45.55-.25.12-3.12 2.23-3.48 1.25-.22.45 1.86.65 2.61Zm-26.84-10.82c-.78-.64-10.61 4.97-12.09 5.87-2.72 1.66-5.17 4.2-8.21 4.99.15 3.78-.77 7.69-.93 11.41-.29 6.62.35 13.33.04 19.95-.21 4.36-2.41 13.19-.39 16.81.27.49 2.33 2.63 2.73 2.69 11.31-2.02 22.78-1.55 34.24-1.54l24.01-2.19c.67-.54-7.65-9.71-8.66-10.16-1.47-.65-3.01.64-2.59-1.52-3.83.39-6.71 2.12-9.93 4.14-1.43.9-2.73 2.96-4.79 2.78-.1-.79.45-1.36.87-1.94 1.32-1.81 4.85-5.78 6.49-7.36.83-.81 3.15-1.79 3.4-2.69l-1.26-15.48c-.62-2.12 1.29-10.63.02-11.71-1.39-1.18-6.91-.1-7.88 1.65-3.13 5.63-5.09 15.85-7.16 22.28-1.06 3.31-2.84 6.42-3.18 10.02-1.45.49-2.19-.6-3.43-.83-.22.83.5 1.31.64 1.97.24 1.11-1.07 1.2 1.95 1.06 1.24 1.21-5.95 6.1-7.12 6.51-2.22.78-3.61-.23-5.87-.02 1.77-1.56 8.02-5.44 8.77-7.47.07-.19.34-3.72.32-3.96-.07-.75-.73-1.39-.83-2.24-.25-2.15-.3-4.64-.66-6.69-1.21-6.77-11.48-7.92-15.18-12.95-1.1-1.5-2.14-3.75.22-4.34-1.01 2.42 1.27 4.42 3.03 5.85 2.61 2.12 6.09 3.32 8.81 5.48 2.15 1.71 3.32 5.19 3.75.57.14-1.49-.08-3.05 0-4.54l-3.02 1.73c-.23-1.05.35-4-.08-4.69-.73-1.18-9.7-2.35-10.75-4.83 3.84 1.66 11.25 1.62 12.56 6.05.14.11.56-.25.65-.42 1.1-2.2-2.33-7.04-2.71-9.86-.72-5.32 1.78-9.89 4.22-14.39Zm-6.06.44c-2.86.98-6.21 2.46-8.22 4.75 2.32-1.12 4.72-2.36 6.94-3.66.47-.28 1.19-.44 1.29-1.09Zm50.65 5.62c-4.78-.43-9.31-2.08-13.85-3.46.2 2.76 2.45 4.55 2.86 7.38 4.06.05 7.22-.4 10.44-2.93.35-.28.8.01.55-.99m62.77-2.17c-1.59 1.01-2.74-.23-4.32-.43a8.35 8.35 0 0 0 1.95 6.05c.31 0 2.68-5.24 2.38-5.62Zm-95.73 4.39c-1.4-.27-4.46.96-4.21 2.65.44 2.99 3.22.29 5.14.75zm26.9 2.11-4.51.42c-1.28 1.15 1.67 2.33 2.48 2.12.74-.19 1.56-1.89 2.03-2.54m-6.93.87c-1.58.4-3.66.02-4.75 1.51 1.7 1.74 4.82 1.13 4.75-1.51m0 3.03c-1.7.12-2.93 1.27-4.76.86.16 4.03-.39 8.16.44 12.12 1.11.07 1.77-1.07 2.18-1.92.64-1.33 2.76-10.41 2.14-11.06m-30.59 9.22c-.45.66-.49 1.03-.58 1.8-.21 1.93-.66 9.17-.4 10.8.22 1.38 1.27 2.24 1.66 3.53.83 2.8-1.08 5.33 1.56 7.09l10.12-30.91c-.79-1.38-2.09-.27-3.11.27-1.88.99-8.16 5.81-9.25 7.41Zm112.42 49.64c2.46.47 4.59 1.15 6.51 2.8 3 2.59 3.35 2.55 6.77 4.49 4.39 2.5 8.67 5.15 12.92 7.87.58 0 .74-.34 1.08-.65 1.41-1.3 5.3-7.27 6.4-9.18 2.78-4.84 4.81-8.57 1.31-13.69-3.98-5.82-10.54-10.25-14.81-16.35-5.01-7.15-7.5-16.22-12.37-23.12-1.3-1.84-2.85-3.85-5.18-4.34-7.91-1.66-23.09 2.45-30.42 5.99-3.29 1.59-6.87 3.34-8.35 6.8l.22-1.73c-.51-.47-6.47 4.18-7.29.99-.66-2.54 4.79-3.69 5.79-4.88.26-.31.41-.85-.01-.88-4.33.4-25.77 12.62-26.55 15.47-.87 3.18 4.6 4.61 6.56 5.83 1.46.91 3.34 2.06 4.64 3.16 2.3 1.94 5.2 4.76-.18 4.08s-9.22-8.82-13.94-9.05c-1.67-.08-3.16 4.13-3.43 5.6-.29 1.57-.49 5.43 1.4 6 22.48.68 44.05 7.08 65.01 14.58 2.32.13 5.16-2.75 7.42-3.23l-3.46 3.45Zm-36.37-43.28c-1.64.28-3.66 1.32-4.76 2.59 1.57-.48 3.72-1.3 4.76-2.59m-60.61 20.34c2.82-1.26 5.45-3.11 8.02-4.75v-1.75c-.52-.71-.81-.29-1.4-.09-2.47.85-4.59 4.82-6.62 6.59m25.11 6.49c-.62-3.86 1.07-6.87 1.98-10.41l-12.8-3.01c.85 4.11 4.96 6.53 7.58 9.52 1.11 1.27 1.68 3.07 3.24 3.9m46.07 23.63c5.31 4.45 13.2 9.61 20.06 10.89 1.6.3 6.58 1.01 7.68.11 1.5-1.25 6.05-11.15 4.12-12.77-.75-.63-8.57-3.52-10.17-4.12-20.64-7.71-41.64-13.77-63.86-14.71 2.07 3.91 14.23 1.56 15.38 3.45.88 1.45-2.44 6.13-3.14 7.7-5.18 11.64-.26 10.32 8.37 12.59 8.69 2.28 15.42 7.95 24.39 9.81 6.58 1.36 12.3.84 18.86 1.05 1.77.06 4.74 1.65 4.53-1.28-7.75-.28-14-2.97-20.31-7.18-5.34-3.56-10.2-7.71-13.72-13.11-.24-.37-1.07-.96-.39-1.35 2.38 3.26 5.1 6.31 8.19 8.91Zm29.26 11.43c5.79.38 13.44 0 17.53 4.76.64-1.29 4.15-5.19 4.12-6.29-.02-.71-3.35-2.99-4.2-3.58-1.2-.83-12.18-7.53-12.69-7.01-.19 4.59-2.83 8.19-4.76 12.12m67.97 9.54c.63 1.14 3.49 2 4.62 2.02 4 .09 4.48-6.16 2.72-5.74-2.1.5-4.86 3.43-7.34 3.72m-18.18 3.02c1.1-.67 6.13-3.86 3.24-5.19-.67-.31-1.09 1.13-1.41 1.61-.36.54-2.12 3.24-1.83 3.58m11.25-1.73c-2.56-.11-4.63-.17-6.95 1.06-.87.46-6 4.73-6.03 5.22-.01.25.76.88 1.15.3l11.83-6.57Zm-36.98 30.98c-7.77 7.17-19.24 13.35-29.6 15.64-13.86 3.05-25.93-5.73-39.5-1.84-3.53 1.01-6.29 6.16-3.22 8.89 5.21 4.63 22.94-.24 31.53 5.27 3.89 2.49 5.46 7.08 9.51 9.54 9.31 5.66 20.1 1.54 29.54-1.8 9.67-3.41 22.18-8.55 30.29-14.74 2.75-2.1 5.7-9 5.87-12.35.3-5.9-5.05-22.5-8.33-27.61-2.03-3.18-3.47-2.95-6.64-.73-6.02 4.22-13.62 14.36-19.44 19.73ZM607.41 67.13c6.72.71 15.98 4.7 19.89 10.42 1.08 1.58 1.32 3.67 2.23 5.13 1.09 1.73 3.8 2.92 3.69 5.45-.11 2.34-2.52 2-3.51 3.05-1.38 1.47-1.02 1.85-3.8 2.68l-27.8 7.05c2.32 5.36-1.09.99-2.64 1.07-9.87 2.43-20.36 5.22-30.48 6.28-3.75.39-14.65 1.6-16.85-1.75-1.64-2.49.57-4.44.22-6.17-.13-.63-2.3-.49-1.44-2.33 1.64-3.53 6.74-3.94 9.42-5.75 4.58-3.1 7.52-8.77 11.46-12.34 2.04-1.84 4.72-2.95 6.71-4.54 5.64-4.48 2.94-4.87 11.14-6.61.42-.09 1.3-.16 1.19-.75-2.99.29-5.89-.54-8.87-.43-4.24.16-10.22 1.55-14.59 2.29-26.26 4.47-53.66 10.16-80.23 12.41-8.2.69-16.46 0-24.62.93-5.91.67-11.72 2.31-17.6 3.18-.53.34-.05 3.85.06 4.72.18 1.44 2.36 11.88 2.75 12.4 1.05 1.4 9.91-1.2 10.19-.22.25.9-1.49.82-2.09.93-2.45.48-4.95.63-7.41 1.03 1.41 11.55 2.71 23.11 5.63 34.38-.56 4.36-4.22 2.91-7.19 3.24-.65.07-1.34.09-1.5.88 4.52 1.02 20.22 2.41 22.46 6.33 1.24 2.17.49 4.84-1.53 6.17-.55.37-1.5.37-1.9.71-.51.44-.24 1.42-.69 1.54-.96.27-4.41.24-5.94.47-7.93 1.21-17.76 4.5-25.56 3.77-3.12-.29-6.06-1.67-9.18-2.08-.58-5.15-3.67-10.16 1.83-13.81 2.64-1.75 6.61-1 7.07-4.4-.73-.67-10.86 4.09-10.81 1.51.03-1.87 12.05-5.9 14.17-6.16 3.45-.44 5.51.72 8.76 1.19-.65-11.06-.53-22.22-2.57-33.14-12.43-1.68-24.42 3.4-36.61 4.14-8.16.49-27.74-2.1-35-5.68-3.57-1.76-5.78-4.7-10.02-5.13-2.32-.23-5.09.31-7.33-.03-.39-.06-2.67-1.03-1.97-1.71.11-.1 1.9.84 2.83.89 1.34.06 2.51-.5 3.87-.49 6.34.05 9.65 4.57 15.07 6.61 5.82 2.19 18 3.9 24.33 4.24 15.17.82 29.27-4.87 44.4-4.51l-.03-17.13c-8.7 1.06-17.46 1.42-26.19 2.17-13.15 1.13-19.33 2.92-32.78-.56-14.28-3.69-29.01-9.13-43.1-12.74-1.9-.49-4.62-1.87-4.88.51-.84 7.72.1 14.46-1.48 22.76-.49 2.58-3.54 12.09-3.28 13.61.31 1.82 3.19 1.31 4.53 2.42 2.08 1.7 6.86 10.15 8.91 11 .92.38 1.84.1 2.7.33.76.21 5.28 1.45 5.46 1.68.16.19.14 1.33-.02 1.61-.13.22-4.25 1.93-4.67 2.03-1.42.36-2.74 0-4.02.3-2.16.5-4.91 1.23-6.81 2.28 4.68 1.63 11.44 2.4 12.98 8-1.52-.13-1.85-1.86-3.05-2.79-2.29-1.76-10.81-4.1-13.67-4.1-2.32 0-12.21 3.71-15.11 4.71-.48.17-1.57.25-1.5.87 5.66.14 11.11 1.99 16.72 2.55 3.98.4 10.31.55 14.21.03.68-.09 1.9-.93 1.97-.84 1.24 1.62-2.96 2.09-3.68 2.16-12.05 1.09-23-3.22-34.19-2.59-1.84.1-8.4 1.57-9.46 1.26-.69-.2-.97-1.44-.71-1.69.1-.09 2 0 2.69-.12 7.62-1.34 15.15-3.56 22.41-6.16-.49-.72-1.18-.62-1.92-.67-3.88-.29-8.21.16-12.16.04-1.41-.04-3.27-.84-4.65-.46-.72.2-2.62 5.01-4.63 4.33-.78-.79 4.33-11.17 4.76-12.98-1.72.29-3.34-.37-4.96-.46-3.37-.18-19.39 1.01-20.53-2.43-1.37-4.12 10.38-2.51 12.72-2.75 1.72-.17 3.32-.91 4.98-1.3l-7.14-1.33c-1.66.96-7.08-.01-8.01.47-.07.04.78 1.35-.66 1.31-1.22-.04-1.81-2.02-.79-2.65 1.57-.96 5.33-.05 7.27-.41 2.19-.41 4.25-2.54 7.83-2.59 1.68-.03 3.83 1.47 4.66 1.26s1.25-1.76 2.03-2.33c.85-.62 2.4-.85 3.25-1.94 1.66 1.64-.08 5.3 3.24 4.75.07 1.45-2.1 1.54-2.51 2.9-.45 1.5.19 3 .35 4.46l19.24-9.54c.52-.88.64-1.65.58-2.66-.23-3.75-3.08-10.15-3.76-14.45-.41-2.57-.79-6.43-.92-9.04-.12-2.27.52-14.76-.7-15.41l-34.78-8.63c-.91 1.25 2.87 4.9 2.41 6.5-.74 1.19-8.46.96-10.23 2.41 1.08 2.97.02 5.79 0 8.6-.02 3.62.07 9.06.45 12.58.27 2.47 2.19 5.81 2.17 8.23 0 .73-1.07 4.09-1.51 4.55-1.67 1.73-2.75-1.08-3.67-1.97-2.5-2.41-4.4-1.17-7.48-1.61-1.71-.24-4.43-2.06-4.89-2.07-1.91-.02-2.11 5.41-.35 6.01 2.56.87 3.57-1.78 5.77-2.1l-1.3 4.76c3.69.27 6.85-1.32 10.63-.89.88.1 1.61.19 1.49 1.32-1.24.29-2.51-.42-3.63-.39-1.86.05-9.57 2.88-10.59 1.2-.3-.49.12-1.92-.06-2.11-.19-.2-3.63.3-4.71-1.56-.94-1.62-.31-3.97-.48-5.79-4.55 1.66-3.12-2.61-3.51-5.36-.69-4.79-1.67-9.5-2.11-14.34-.12-1.29.32-4.16-.22-4.99-.32-.48-1.4-.13-1.08-1.06 2.62-.48-.03-5.51 2.78-4.96.92.18.76 3.18 1.12 3.45.18.13 3.09-.64 4.52-.41s2.15 1.31 3.92 1.31c4.64 0 4.13-2.75 4.12-6.53-.95-.95-12.69 4.83-11.67-1.92.75-4.93 10.47-4.68 12.96-8.03-3.27-.99-6.58-2.1-9.68-3.53-5.63-2.59-10.42-6.83-15.87-9.24-6.13-2.71-13.29-3.9-19.59-6.39-1.78-.71-4.23-2.47-5.74-2.92-.96-.29-1.17 1.16.56.99 1.28-.13.72 1.21-.9.65-.29-.1-2.17-2-2.43-2.34-1.51-2.02.57-1.57 2.04-1.17 2.23.6 4.33 2.24 6.46 3.06 6.59 2.54 14.15 3.89 20.45 6.82 10.93 5.08 16.7 12.73 30.08 12.74 6.32 0 5.21 2.37 9.02 4.44 1.48.8 4.7 1.64 6.47 2.19 9.6 2.97 19.96 4.55 29.77 6.81-.52-10.29-.3-21 4.34-30.51 0-.35-2.35-.32-2.76-.23-.45.1-.01 1.33-1.14.87.48-1.6-1.14-3.03-.79-4.43.24-.98 1.86-2.12 2.02-2.8.14-.61-.37-1.36-.2-2.31.67-3.73 10.88-7.35 12.86-2.84.45 1.03.23 1.81.49 2.54.3.83 1.35 1.07 1.24 2.25-.16 1.67-5.16 2.86-5.27 3.53 2.74 5.92 3.01 12.09 2.63 18.55-.17 2.93-2.94 17.08-1.97 18.43 7.17 1.62 13.9 4.79 20.93 6.77 8.13 2.29 16.43 4.39 24.59 6.58 16.57 4.45 33.21 1.73 50.18.03 1.53-.15 10.07-1.09 10.62-1.5.6-.45.67-12.62.23-13.24-.32-.46-4.14-.22-6.31-1.91-4.09-3.18-4.85-8.95-1.91-13.18.95-1.37 4.79-3.9 4.89-4.21.44-1.29-.52-2.74-.37-4.04 1.42.21 1.6 3.2 2.41 3.41.17.04 3.11-.68 3.35-.8.46-.23.47-1.49.96-2.17.62-.85 1.59-1.57 2.31-2.46.34-.43.41-1.36.49-1.44.19-.19 1.08-.2.84.62-.2.7-2.98 4.55-2.58 5 1.05.07 3.49.39 3.03 1.95-.24.8-1.79.26-1.73 1.08 5.08-.22 11.51.5 10.84 7.15-.58 5.69-8.2 8.48-12.8 10.15-.29 4.62-1.16 9.26-.2 13.87 8.68-1.42 17.35-3.5 26.17-3.92 4.74-.22 9.56.29 14.3.01 14.07-.82 31.6-4.01 45.83-6.12 15.09-2.23 29.99-5.19 45-7.81 1.04-.14.51-1.75.78-2.04.3-.33 7.73-1.3 8.81-1.37 1.8-.11 11.15.45 11.73-.39.74-1.07-.22-3.67-.26-4.99-.23-7.45.88-13.62 1.31-20.8.08-1.29.25-5.05 0-6.05-.13-.52-.79.04-1.17.13-1.95.46 1.29-2.76 1.38-2.96.56-1.21.08-2.99.22-4.32l-1.73.22 2.81-2.81.65 5.62c2.24-.7 4.6-.37 6.92-.43-1.26 2.24-5.59.53-6.96 2.34-.84 1.1-.24 4.48-.4 6.1-.21 2.14-1.24 5.84-.85 7.79.53 2.66 3.89 6.65 3.89 10.83v7.79c0 .31.93.84 1.39.56 40.87-7.63 79.26-25.36 119.82-33.9 2.84-.6 5.74-1.23 8.66-1.08.16.95-.39 1.04-1.1 1.28-1.76.59-4.37.65-6.27 1.09-41.11 9.55-80.38 25.47-121.77 34.07-1.44.66-1.16 3.38-.08 3.38 2.43 0 5.46-.25 7.79 0ZM330.13 27.31c-.91-.79-8.38 1.63-7.35 4.32 2.49-1.37 6.95-.83 7.35-4.32m-2.6 4.33c-.13-.15-2.54.5-2.59 1.29.95.28 3.74.03 2.59-1.29m-1.3 4.75c.28-.37-5.03-2.92-5.22-.64-.27 3.11 3.65 1.19 5.22.64m2.99 36.33c1.09-9.74 4.43-21.82 1.35-31.36-1.17-3.62-1.87-5.07-5.55-2.7-.84 4-3.03 7.44-3.87 11.49-1.37 6.56-1.07 13.81-.79 20.47zm265.42-9.49c1.6-.18 2.83-.12 3.05-1.92.53-4.32-.34-10.84-2.07-14.86-.23-.53-.23-1.28-.98-1.4zm-153.26-9.95c-1.84-.8-3.52-.3-5.19.64l1.83.58zm-7.13 1.31c-.13 0-1.84 1.04-2.17 1.29-3.97 3.03-4.67 10-.44 12.99 1.41 1 5.41 2.43 5.85.21.25-1.24-.74-7.84-1.27-9.12-.41-.98-1.53-1.71-1.7-2.67-.13-.72.74-2.64-.27-2.7m6.7 14.71c5.02-1.2 13.62-4.89 10.93-11.58-1.73-4.28-14.74-1.86-14.81-.76-.07 1.03 2.37 2.33 3.46 1.95.47 1.66-2.21.5-2.6.87l.87 5.62c.76.1.41-.98.43-1.51.05-1.08-.03-2.17 0-3.25.48-.18 1.73.19 1.73.65v8.01Zm-163.2-10.82-2.16-.43c.28 1 1.37.92 2.16.86v-.42Zm-5.22.88c-2.16-.94-3.23.77-5.18 1.48-3.41 1.24-10.15 1.96-9.33 6.75.45.63 1.86.43 2.58.36.99-.1 9.5-1.94 9.94-2.19.83-.48 2.33-6.03 2-6.4Zm11.28 9.93c.27-1.61-1.19-2.4-1.82-3.59-1.66-3.12-1.41-4.65-5.98-4.88-.27.21-.91 3.49-.87 3.94.09 1.03 1.21.88 1.33 1.37.3 1.22-.57 2.73.01 4zM592.9 65.4c-.14-.15-3.42.41-3.99.56-.44.11-1.3.12-1.2.74h5.2c-.05-.35.08-1.2 0-1.29Zm-322.07 5.19c3.61-.43 1.91-3.51-.87-3.46zm359.15 14.44c-1.74-2.3-1.75-2.87-3.09-5.35-4.25-7.89-16.57-12.08-25.12-11.25-3.02.29-1.54 1.57-2.35 4.14-.58 1.84-1.91 2.22-2.39 3.24-.56 1.18-.99 3.79-1.54 5.17l-.52-5.32c-1.47-1.55-2.03-3.37-2.07-5.5-1.1-1.1-15.59 5.01-17.53 6.5-1.47 1.13-4.57 5.07-5.83 6.72-1.42 1.85-2.8 3.77-3.91 5.83 3.64-1.04 7.74-1.08 11.36-1.84 9.58-2.02 27.59-11.13 33.06 1.01 5.38-.12 11.47 2.12 16.79 1.65 5.02-.44 6.26-.87 3.15-4.99ZM596.37 69.3c-2.39-.21-2.23 2.9-1.07 4.32zm-267.6 5.25c-1.35-.24-7.18-2.29-7.96-2.15-.41.07-.57.61-.64 1.01-.82 5.13.18 16.17.93 21.58.6 4.34 1.37 9.02 3.62 12.83l2.26-5.08c2.13-9.4 2.9-18.56 1.78-28.18Zm-66.82 1.67c-1.64-.47-5.24.34-7.14 0-1.49 7.7.52 15.43 1.98 22.97 1.73-.68 10.59-.74 10.98-2.03-1.06-7.09-1.51-14.2-1.27-21.38-.92 0-1.98-.24-2.59.65.82 1.21.96 2.69.85 4.11-1.03-.62-1.66-4-2.81-4.33Zm11.03 2.17c-.1-.09-2.04.11-2.59-.43.13 2.37-.33 18.91.5 19.42.39.24 3.44.25 4.26.49-.73-3-.07-6.38-.47-9.27-.25-1.79-1.38-3.57-1.64-5.72-.11-.9.11-4.34-.06-4.49M560.87 90.5c2.8-.21 4.84-3.88 6.23-6.1.34-.54.84-.96.69-1.69zm46.14-4.56c-5.68-4.92-15.49-1.09-21.9.45l22.71 1.52c.84-.71-.26-1.5-.81-1.98Zm-16.7 2.4h-8.87c-.14 0-.74.4-1.28.45-2.72.28-4.88.27-7.59 1.29l1.53.45 16.22-2.18Zm-151.52 1.52c-.56 2.2 0 10.07 0 12.99 0 1.58 2.44 1.81 3.5.83l-2.63-14.46c-.27-.01-.82.5-.86.65Zm169.7.22c-9.18-.56-19.13-.14-28.3.91-3.68.42-7.56 1.01-11.18 1.81-4.42.97-8.51.83-8.04 6.48.32 3.95 3.28 3.88 6.64 3.8 6.59-.15 32.44-6.37 37.82-9.8 1.34-.85 2.52-1.62 3.07-3.21Zm16.01 1.73-13.99-1.67c-1.68 2.21-3.33 3.73-5.78 5.05-1.43.77-9.65 3.24-9.65 3.76 0 1.04 2.89.54 3.48.45 8.09-1.18 17.05-5.52 25.35-6.68l.6-.91Zm-67.96 2.16c-1.12-.05-9.18 3.61-8.22 4.75 1.03 1.22 3.2-1.33 4.01-1.83 1.11-.68 2.25-1.21 3.36-1.85.57-.33 1.09.07.85-1.08ZM560 95.7c-1.54-.66-8.53 2.75-8.22 4.11.14.62 8.65 2.81 9.09 2.38-.6-2.25-1.17-4.08-.86-6.49Zm-292.21 5.63c.35-3.3-1.72-1.49-3.89-1.73.13.97 3.64 2 3.89 1.73m7.73-1.68c-.21-.13-4.59-.6-4.87-.52-.4.11-.57 1.72-.7 2.19 2.63-.26 4.26 1.8 6.49 2.6.23-.25-.69-4.12-.92-4.27m318.25 1.24c.06-1.49-1.22-1.36-2.32-1.26-9.96.85-17.62 5.82-29.01 4.68-2.64-.27-10.41-3.14-11.74-2.99-1.14.13-2.05 2.71-1.96 3.69.15 1.51 2.57 2.1 3.8 2.28 6.86.99 17.87-1.28 24.86-2.62 5.51-1.05 10.95-2.36 16.37-3.76Zm-151.15 4.83-3.4-.06 2.6 35.5c-5.12-1.61-9.44-3.31-14.71-.86.26 1.01 2.18-.08 2.85.84.5.7-.5 2.17-.25 3.05 2.21-.36 4.93-.17 7.04-.53 1.92-.33 3.89-1.77 5.77-2.02 1.68-.23 5.59.7 6.16-1.21l-6.04-34.69Zm-148.86 9.9h-3.03v.42h3.03zm28.95 1.79c-.65-.61-5.06.51-5.98 1.03-1.5.85-12.14 12.11-11.27 12.75 7.54-1.41 14.78.81 22.31.46l12.32-1.32c-.65-2.74-3.74-3.24-5.6-4.57-.87-.62-2.58-2.36-3.28-3.21-1.84-2.25-2.09-5.62-5.41-4.33-.22.24 1.19 3.73-.21 3.03-.59-1.29-1.76-1.78-2.57-2.64-.25-.26-.15-1.03-.31-1.18Zm-21.15.36h-2.17c-.64.65 1.15 4.17 2.6 3.9zm33.76 6.5-4.76-5.62c-.2 1.14 4.06 6.28 4.76 5.62m-45.23-2.6c-3.21.34-7.47 0-10.82 0-.1 0-.72.48-.44.87 1.1 1.52 7.53 2.07 9.51 2.18 4.5.25 9.14-.22 13.66-.03l-2.61-1.93c-.78-.5-1.76-3.07-2.41-3.23-.35-.08-5.41 1.97-6.88 2.13Zm22.72-1.72c-1.49.33-3.7 1.37-4.91 2.23-1.51 1.07-5.1 5.94-5.8 7.62s-.93 3.56 1.11 1.55c3.36-3.32 6.24-7.98 9.59-11.4Zm31.61 8.65c-.13-.12-3.35-1.01-3.46-.87-.27.36 0 1.44.71 1.66.58.18 3.88.27 2.75-.79m-15.16 4.33c-7.55.6-14.99-1.86-22.51-.43-.69.56.05.79.64.86 3.86.49 9.34-.08 13.45-.02 2.02.03 3.63.61 5.99.4.48-.04 2.39-.2 2.43-.81m99.57 17.74c3.8-.22 7.66-.7 11.49-.45 6.52.43 12.52 3.6 18.6 5.68 6.41-1.31 5.8-5.31 0-7.41-4.24-1.54-19.53-4.28-23.49-3.11-.78.23-7.68 4.39-6.61 5.29Zm3.9-5.19c-1.29.03-3.26.07-4.43.54-1.94.78-7.31 9.26-7.58 11.43-.12 1.01 1.07 2.02 1.95 2.21 2.21.46 15.2-3.79 18.53-4.63 2.2-.56 4.41-1.15 6.68-1.34-.12-.73-.84-.78-1.39-.98-6.1-2.31-13.45-.78-19.82-.75-.19-3.32 4.31-4.26 6.06-6.49Zm-8.23 1.73c-4.89.1-5.88 4.1-5.19 8.22l.97-.56zm32.04 9.53c-5.4-2.94-10.82-1.53-16.45-.22-4.12.96-8.68 2.44-12.78 3.67-.62.19-.76-.27-.64.87 8.93 1.52 17.66-2.11 26.42-3.23zM362.6 405.2c-3.4.4-5.77 2.74-8.65 4.12-7.16 3.43-15.95 4.24-23.49 6.82-8.63 2.95-17.52 5.88-26.1 8.96-7 2.51-13.35 6.54-20.33 9.11-10.71 3.94-23.73 7.74-34.77 11.12-2.74.84-5.82.93-8.24 1.71-4.37 1.41-8.95 5.69-14.01 6.76-3.57.75-7.26.03-10.97 1.15-5.32 1.59-10.8 6.44-15.76 8.92-4.52 2.26-9.37 2.82-14.1 4.52-5.5 1.97-10.68 5.14-16.11 7.27-6.59 2.58-13.59 4.22-20.25 6.59-3.27 1.16-7.59 3.72-10.68 4.47-2.43.59-4.85-.1-6.97.39-1.58.36-3.34 2.84-5.77 2.93-1.93.07-1.21-1.46-1.49-1.71-.29-.27-6.52 1.79-7.68 2.03-.9.19-6.36 1.22-6.59.98-.26-.27-.04-1.4.73-1.65 2.13-.68 5.61-.78 8.11-1.41 31.8-7.96 60.51-24.63 91.69-34.29 7.88-2.44 15.82-4.72 23.45-8.15 1.76-.79 3.35-2.3 5.47-3.19 11.91-4.97 24.71-7.49 36.78-12.14 12.53-4.83 25.09-11.6 37.56-16.12 11.35-4.11 22.36-7.29 33.77-11.69 2.73-1.05 5.67-1.43 8.33-2.71.08-.83-.86-.34-1.3-.22-5.82 1.59-10.66 2.11-11.25-5.63-.14-1.84 1.47-9.19-.7-9.68-.52-.12-8.39 2.29-10.35 2.54-1.71.21-13.16.93-13.63.44-.11-.12-.12-1.07.26-1.34 1.72-1.23 6.24-1.85 7.97-3.64l-3.88-.67c-.49-2.08 1.76-2.77 2.58-4.3-7.63 2.46-14.48 6.87-21.79 10.03-8.05 3.48-15.82 5.19-5.92-4.83-2.62-.06-7.14 2.25-8.66-.43h3.03l-.86-3.47c.78.32 1.56.75 2.43.84 4.61.47 13.01-4.33 17.81-5.27.85-3.7-1.36-7.38-.73-11.34.22-1.39 1.17-2.07 1.59-3.17.2-.51-.02-2.7.76-2.7 1.48.01.17 7.68.18 8.87.02 2.63 1.07 5.21.04 8 1.8.05 3.62-.05 5.43-.02.67.01 3.69.97 3.65-.2 0-.25-2.67-2.92-1.73-4.54-2.27.5-2.79 3.75-5.62 3.03l4.11-5.62c.11 2.54 1.31.29 2.39 1.04 1.17.81.19 4.38 2.16 5.22 1.4.59 7.73-.76 9.61-1.19 3.13-.72 5.91-1.94 8.9-2.79.8-.23 3.58-.33 3.91-.63 1.81-1.64-1.15-10.18 1.81-11.61l1.09 3.45c1.28-1.1 2.47-2.47 2.72-4.22.2-1.37-.34-2.11-.3-2.94.09-1.86 1.01-6.64 1.38-8.94.35-2.16 2.39-8.1 1.95-9.55-.27-.9-2.27-3.28-2.85-4.95-.42-1.2-1.19-3.57-.49-4.6 1.73-2.54 3.95 4.8 5.36 2.74s-.09-3.04-.19-4.13c-.15-1.64.06-3.32-.02-4.95 1.3-.23.68.36.91 1.01.36 1.04 1.36 2.98 1.46 3.67.45 3.22-3.16 5.92 1.09 8.08-.52 1.3-3.06.98-3.45 1.84-.33.71-.34 2.56-.65 3.58-1.77 5.82-2.46 7.74-2.4 14.08 0 1.17.59 2.19.44 3.4-.18 1.54-2.38 4.68-3.04 6.52-.77 2.16-1.05 4.53-1.71 6.72l3.22-3.49c.81-1.87 3.08-4.59 3.53-6.46.59-2.47-2.06-5.16 1.8-5.96.81-.17 2.13.08 2.62-.2.13-.07 1.69-2.23 1.73-2.37.34-1.12 0-4.75-.45-5.87-.5-1.23-2.21-1.42-2.7-2.49-1.36-3 1.92-8.18 2.7-11.14.44-1.66.38-4.31.72-5.74.95-4.02 3.14-2.8 6.31-2.6-.1 1.38-3.86.11-2.81 1.73 1.06-.78 6.32-1.11 6.63-1.38.23-.2.08-1.37.73-1.65.89-.23.82 1.17 1.38 1.31 2.06.49 4.97-.46 6.84-.44.89 0 3.81.34 4.67.53 1.85.4 4 2.22 4.63 4.03.71 5.14.46 10.38 1.37 15.51 1.15 6.51 3.42 11.67 7.29 16.97 2.42-.72 2.95-1.68 5.35-.17 5.35 3.38 10.91 13.82 11.49 20.11.39 4.3-.77 8.04-.81 12.28 1.83-.1 3.03-1.33 4.98-1.31 1.1 0 .59.53.65 1.31-2.93-1.12-7.65 4.9-7.38-1.53.4-9.39 2.35-12.34-2.78-21.42-1.19-2.1-6.33-9.62-8.9-8.91-3.18.88-1.85 4.73-.77 6.89.97 1.94 4.05 4.06 4.48 5.05.79 1.84-7.2 3.89-8.67 3.9-2.66.03-11.29-1.62-14.09-2.35-3.56-.93-6.27-4.6-7.13-8.02-.4-1.6.14-3.5-.43-4.77-.64-1.42-5.31-3.89-6.36-5.76-1.69-3.03-.19-8.07-.99-11.57-.13-.56-2.29-4.91-2.59-5.2-1.03-.99-3.07.41-3.04-2.59-.99 1-2.59 5.02-2.32 6.19.34 1.44 1.99.92 2.85 1.29.14.06.18.57.44.72 5.27 3.17 1.44 3.74.99 7.2-.14 1.12.46 2.62.37 2.96-.23.95-1.93.57-2.67.78-3.74 1.04-4.77 9.81-5.51 13.1l2.16-.65c.51 2.59-2.58 1.81-3.07 2.43-1.57 1.96-3.3 11.59-4.3 12.27-.42.29-1.41-.08-1.7-.63l4.75-14.5c-1.14.04-1.9 1.63-2.52 2.46-.87 1.18-4.43 6.68-4.39 7.72.02.57.8 1 .67 1.53-.38 1.54-1.7 3.11-1.88 5.51-.22 2.93-.25 2.98-.79 5.68-1.38 6.88-1.28 14.28 7.9 10.93 4.09-1.49 5.02-3.73 7.93-6.36 1.01-.92 3.21-1.91 3.79-2.49 1.18-1.18 3.24-6.92 4.75-8.86.28-.36 0-.79.99-.54.31.38-.32 8.05-.54 9.19-.72 3.68-4.31 5.79 1.41 7.47-.94 2.26-7.28 5.04-7.9 6.38-.87 1.85-.33 10.65.41 12.8.19.55.31 1.26.99 1.38l1.3-6.92c.19 1.37.86 3.21.87 4.54 0 1.23-1.42 5.89-1.11 6.3 12.4 3.45 23.63-4.52 34.87-8.47 1.42-.86.65-2.54.91-3.85 1.57-7.88 11.81-9.87 18.42-11.02 2.13-.37 3.82.36 5.35-2.01.19-1.03-.47-.51-1.06-.65-3.21-.75-9.48.29-12.87 1-3.02.64-5.96 1.91-9 2.47.43 1.27 4.17-.04 3.89 1.73h-8.44s-.87-.63-.44-.87c.43-.49.8-.91 1.42-1.19 2.96-1.33 10.55-3.15 13.94-3.81 5.65-1.1 10.88-1.31 16.6-.55 3.08 2.27.86 2.77-.03 4.57-2.45 4.96-6.55 26.51-6.16 31.92.2 2.74 1.42 5.12.66 8.03-3.03 11.54-15.85 11.45-24.33 16.8-4.36 2.75-2.34 3.54-2.29 7.63.07 5.22-.97 10.17-.02 15.38l19.27-9.08c.86.07.1 3.26.31 4.43.23 1.29 1.29 3.65 2.94 3.17 1.21-.35 1.69-1.98 3.02-1.98 1.1 1.17-8.11 8.63-10.39 7.36-.63-3.69 3.09-6.64 1.95-10.39-4.09 1.88-8.68 3.87-11.41 7.64-.85 1.17-2.67 3.69-.72 4.04 4 .72 8.33-.71 12.1-.88s9.11-.25 13.02 0c6.66.43 13.4 3.12 20.11 1.75.51.53-1.84 7.31-1.64 8.78.36 2.71 4.56 5.24 3.29 9.53-.91 3.06-5.11-.26-5.11-2.08v-6.71c-1.46.29-5.44 1.27-3.5-1.12.61-.75 5.57-1.97 3.97-4.31s-4.58-.99-6.27-1.57c-.54-.18-.38-.94-1.34-1.28-6.71-2.35-22.21-1.91-29.33-.7-4.08.69-2.58.51-4.69 2.67-1.48 1.52-5.42 1.72-1.06 2.84 4.26 7.67 9.66 15.09 13.28 23.08 1.01 2.23 3.73 8.11 2.73 10.24-1.56 3.34-3.21-4.2-4.72-3.87-1.27.27-3.97 6.42-6.52 6.92-.56.11-.87-.07-.65-.65.56-1.46 4.47-4.98 4.34-6.47-.05-.59-1.56-2.74-1.96-3.72-.9-2.22-1.83-4.67-2.59-6.93-1.62-4.81-2.85-13.83-6.29-17.09-.58-.55-3.4-2.31-3.47-2.6-.38-1.55 3.79-.62 4.76-1.52-.92-1.68-3.35-3.53-5.18-1.93-.79.69-.27 2.23-1.96 1.95-.23-.04.13-.97-1.26-.91-4.73.22-14.68 6.28-18.23 9.54-1.55 1.42-6.79 7.81-7.85 8.17-.33.11-.68.07-1.01.06v-5.19c-2.43-.23-4.26 2.33-6.58 2.74-.5.09-3.68 0-3.81-.14-1.17-1.16 2.05-1.78 2.62-2.36 1.07-1.08 1.55-3.87 3.43-4.37.66-.18 1.41.47 1.96-.17 1.55-1.95 6.06-14.1 7.37-14.74 1.03-.5.59 1.28.44 1.74-.65 2.03-7.75 14.86-7.15 15.57 5.49-2.3 10.38-5.92 15.83-8.19l2.35.23 10.84-4.88c.08-8.81-2.56-17.4 1.31-25.85-1.84-1.05-3.34-.27-4.44-2.55-1.63-3.36.78-5.97-1.45-8.5-1.9-2.15-5.81-1.21-8.59-1.36-2.49-.14-4.7-.47-7.41-.42-1.36.02-2.51.49-3.86.47s-5.71-.78-6.3-1.97c-.38-.76.53-.66.94-.77 3.74-1.06 7.11.94 10.74-.31.02-.57-2.54-1.4-1.73-2.16.61-.57 1.72 1.65 2.6 1.3v-8.01c0-.25-1.14-1.89 0-1.94 2.24 3.67 1.37 7.22 2.14 11.06 5.26.03 8.81.03 13.19 3.19l1.99-3.43c.48 1.05-1.26 7.35.22 7.35.66 0 5.57-9.06 6.06-10.39 1.18-3.25 2.21-7.93.22-11.04-1.61-2.52-5.92-3.4-6.92-6.52l-16.64.71c-2.39.38-1.79 2.14-2.63 2.57-.54-.24-.34-1.68-.92-1.76-1.95-.28-5.26 1.5-6.88 2.62l-.21-1.29c-4.96 2.19-9.27 1-14.28 0-.12 1.97 1.97 2.9 2.58 4.55 1.56 4.2-.38 6.5 3.28 11.45.69.93 1.65.49 1.53 1.94-.07.87-2.03 4.65-3.07 3.69-.4-.37 1.95-2.85 1.77-4.05l-3.93-3.3-4.8 15.74c3.25 3.31 6.51-.48 10.43.27-1.68-2.24-3.7-9.02 1.04-4.71 1.75 1.59 5.09 7.64 6.33 8.39.81.49 2.11.14 3.03.22-.56-4.23-2.55-9.39 2.93-11.14 2.19-.7 3.6.51 5.29-.98l.44 2.59c-.75.76-4.95-2.84-7.55 1.32-2.32 3.71 3.54 9.18-2.83 9.51 1.36 2.87 3.27 11.21 7.36 7.36-.24 1.9-2.23 2.7-3.88 1.94-1.49-.69-2.21-3.18-3.06-3.86-2-1.58-6.27-1.55-8.52-2.3-2.02-.67-6.34-4.48-7.79-4.78s-3.32 1.48-4.7 1.64c-5.85.71-.57-3.85-.61-5.42-.01-.43-2.66-3.61-3.2-4.58-2.51-4.57-3.7-12.31-3.29-17.48.05-.6.69-4.41.87-4.55.05-.04 1.16-.05 1.27.01.57.36 1.56 11.71 1.75 13.41l-1.3-2.6c-.75-.08-.47 1.49-.44 1.96.18 2.79 2.05 9.62 4.13 11.45 1.41 1.24 2.96-1.67 3.57-2.91 1.64-3.32 3.97-15.92 2.27-18.86-.94-1.63-.3-.96-.67-2.05-.34-.99-4.13-4.31-.43-4.76 3.61-.44 7.67 2 11.49.45l-3.79-1.19c-.64.09-.73-.76-.54-.97.62-.67 6.33-.26 6.88-2.03.28-.89-2.12-6.53-2.12-8.15v-8.44Zm15.58-44.58c-.33 3.49 1.7 8.45 5.09 9.84 3.1 1.26 14.27 2.73 17.53 2.18.62-.1 4.11-1.43 4.21-1.85-1.31-2.2-3.39-3.4-4.56-5.82-1.16-2.4-1.22-4.9-2.15-7.37s-2.7-4.28-3.84-6.55c-1.94-3.9-3.31-10.99-3.68-15.37-.37-4.46 1.53-11.9-3.85-13.47-3.09-.9-11.18-.21-14.56.36-1.26.21-2.44.77-3.72.82-.11.85.7 1.15.85 1.96.24 1.31-.27 2.93.1 4.23.24.82 1.67 1.78 1.98 3.22.96 4.56.23 10.05 1.81 14.64.85 2.48 3.13 4.76 4.01 7.25.45 1.27.26 3.21 1.01 4.19.82 1.08 4.09 2.1 5.39 4.13.36.57 2.85 6.03.42 4.78-1.29-.66-1.34-4.03-2.77-5.45-.4-.39-3.05-1.96-3.27-1.7Zm-11.68-34.63c.71-.31 1.43-.95 1.29-1.73-.71.31-1.43.95-1.29 1.73m.85 6.06c.66-.62.32-2.98-.64-3.02-1.1-.05-.38 3.99.64 3.02m3.47 9.09v-7.58c0-.35-.81-2.13-1.51-1.95-.31.08-1.88 2.5-1.85 3.17l3.36 6.35Zm.87 4.32c-1.14-.09-.72-.05-.85.66-.97 5.23.73 8.16 5.61 10.16.68-.68-5.48-8.85-4.76-10.82m-12.12 7.37c-.73-.65-1.95.55-1.29 1.29.41.46 1.76-.88 1.29-1.29m-13.43 17.31-17.74 4.11c.94.92 2.35 1.39 3.64 1.5 3.57-1.74 9.58-1.33 12.91-2.69 1.37-.56 1.27-1.59 1.19-2.92m-3.46 5.2c-1.71.09-3.8.37-5.43.85-.48.14-1.31.15-.63.87 1.03 1.09 5.36-.31 6.06-1.72m-25.11.43c-1.2.02-2.42-.09-3.63.05-.46.05-2.03.17-2 .81.92.04 1.84.02 2.76-.05.55-.04 2.66-.24 2.87-.81m5.63.87c-2.7-.43-5.17 1.15-7.68 1.62-8.17 1.55-11.34 1.54-17.87 7.67-.91.85-2.13 1.91-2.16 3.25 3.33 0 6.33-1.85 9.38-2.95l18.32-9.6Zm12.99 1.73c-3.34-1.15-7.19-.76-9.52 2.16 2.15-.02 4.9-.09 6.96-.61.66-.17 2.3-.83 2.56-1.54Zm-10.39 7.35h6.71c1.27-.37 8.8-1.61 8.83-2.81 0-.11-.9-1.06-.61-1.95-2.14 1.49-5.47.28-7.15.63s-6.28 2.91-7.78 4.14Zm41.56 6.49c2.8.2 1.86-3.85 2.59-5.62-1.06.47-3.2 5-2.59 5.62m3.46 5.21c-1.73.08-2.39-1.95-4.06-.83-.81.54-2.51 4.04-2 4.72.59-.49 6.98-2.89 6.06-3.89m-8.66-.87c-.77-.78-3.69 1.61-3.02 3.03.73-.13 4.02-2.02 3.02-3.03m66.67 2.6c-4.89-1.62-7.05 9.37-9.08 10.61-.76.46-4.2.18-5.65.41-1.12.17-8.53 2.73-9.22 3.23-1.2.88-.05 5.88-2 8.06-2.16 2.42-7.52 1.64-7.81 1.94-1.32 1.37 2.9 3.27 3.67 3.9 7.09 5.78 1.16 17.27-3.06 23.33-1.88 2.7-2.17 1.39-3.65 2.41-.98.68.26 5.06 2.32 4.88 2.25-.19 1.53-4.32 3.11-4.66s.52 2.47 1.71 2.15c1.22-.33 3.67-2.03 5.13-2.66 4.57-1.96 14.44-4.77 17.1-8.87 4.69-7.22.8-9.78 1.42-16.76.47-5.28 2.31-14.54 3.54-19.84.64-2.76 1.76-5.4 2.47-8.13m-66.34 4.21c.72-.76 1.01-3.87-.46-3.73-2.44.87-5.28 2.38-7.65 3.19-12.96 4.39-26.31 8.12-39.19 12.76-13.36 4.81-26.84 12.09-40.36 17.21-12.21 4.62-24.16 6.95-36.34 12.15-1.37.58-2.18 1.65-3.43 2.2-1.46.65-12.26 4.36-12.28 5.02-.04 1.29 5.06-.12 5.72-.33 4.29-1.37 8.3-4.91 12.02-6.16 2.17-.73 4.93-.77 7.26-1.39 3.98-1.07 7.75-3.1 11.69-4.33 7.52-2.34 15.43-3.97 22.83-6.61 6.96-2.48 13.24-6.39 20.01-9 5.75-2.22 11.86-3.24 17.66-5.29 4.29-1.52 8.32-3.71 12.67-5.08 9.35-2.94 15.24-3.35 24.33-8.14 1.09-.58 5.14-2.08 5.52-2.48Zm61.15-3.78c-6.26-.08-18.44 2.78-19.38 10.28-.21 1.64-.36 2.39 1.4 1.83 2.92-.93 5.74-2.34 8.78-2.92 1.28-.24 2.98.17 4-.32 1.38-.66 3.98-7.34 5.19-8.87Zm-20.78 15.15-20.34 7.79c2.95-.1 5.94.15 8.89.03 1.4-.06 2.65-.4 4.72-.44 5.91-.11 7.03-1.14 6.73-7.38m-194.81 42.42c-11.15 2.53-21.72 7.48-32.04 12.33l-40.25 15.8c4.3.72 8.87-2.63 13-4.09 7.33-2.59 15.3-4.49 22.49-7.38 4.92-1.98 9.49-4.89 14.5-6.71 4.06-1.48 8.43-2.06 12.34-3.68 3.54-1.47 6.91-3.98 9.96-6.27m141.13 1.3c-2.02-.9-2.51-.3-3.03 1.72.31.31 3.31-1.34 3.03-1.72m15.58 6.92c-3.97-3.01-5.62-9.88-11.68-5.84 3.6 2.78 7.14 4.98 11.68 5.84m31.18 19.48 2.54-1.07c-1.49-2.89-1.87-6.12-2.11-9.32l-.88 4.96zm19.91-4.33c1.25.13 2.25-.61 3.02-1.51-2.15-2.78-2.57-1.13-3.02 1.51m-12.99-1.73c-1.84.29-2.84 1.6-2.59 3.46.74.84 2.86-3.19 2.59-3.46m-30.31 18.62c-3 .5-5.04.67-4.33 4.32 1.01.28.73-.26.99-.55 1.11-1.26 2.29-2.46 3.34-3.77m75.32.86c-1.43-1.43-.83 4.41.87 4.33.15-.75-.52-3.98-.87-4.33m-34.19 20.78c-.55-2.01-1.47-4.63-3.02-6.06.49 1.99 1.29 4.9 3.02 6.06"/><path fill="currentColor" d="M82.51 354.99c-1.14-.49-3.89-.37-4.76-2.16l6.92-.89c.17-1.59-2.16-12.08-1.72-12.53 1.26-1.29 3.17 3.98 3.7 4.73.73 1.03 1.96 1.86 2.78 2.84-1.08.94-3.31-2.61-3.89-1.95l.92 6.44c.68.43 10.03-1.98 10.78-2.75.98-.99.37-7.28 3.02-6.07l-.43 5.4c.62.07 1.21-.04 1.82-.12 18.9-2.58 39.92-9.89 58.68-14.05 6.38-1.88 12.25-5.07 18.71-6.61.29 2.41-2.29 1.92-3.81 2.46-10.01 3.6-19.95 7.29-30.29 9.97-14 3.63-28.5 5.66-42.45 9.5-3.7 1.02-3.64 1.54-3.97 5.56-.63 7.78.83 17.03 3.26 24.43 1.51 4.59 4.12 8.96 5.4 13.65-.49.73-.94-.1-1.23-.5-2.87-3.87-4.59-11.35-6.69-15.82l-2.04-8.13 3.05 51.06c6.53-1.62 12.53-4.7 18.93-6.79 4.51-1.47 9.21-2.4 13.74-4.01 4.83-1.72 9.43-3.91 14.06-6.07v-7.14c0-.3.99-1.08 1.53-.23.34.54.31 4.13.65 5.43.13.5-.33.78.64.66 12.53-5.89 26.17-8.75 39.16-13.44-1.56-7-1.63-14.2-2.71-21.28-1.82-11.97-7.03-27.22-3.36-39.1.21-.69 2.18-5.6 2.39-5.84.49-.56 1.29-.38 1.95-.43.5-12.58 4.68-24.28 3.91-36.99-1.02-16.61-4.41-33.74-3.89-50.68.95-3.07-.32-9.59.5-12.02.21-.63 1.94-1.52 2.6-1.73 7.39-2.38 14.71.56 22.24.16 10.88-.58 16.01-2.76 27.55-.32 10.21 2.16 14.67 3.61 25.67 2.46 2.64-.28 5.88-2.75 7.95-.15 1.58 1.99 1.5 9.78 1.38 12.51-.58 12.8-3.05 26.11-3.91 38.94-.45 6.76-.17 13.59-.42 20.36-.4 10.85-1.71 22.02-.9 32.9.11 1.54 2.5 12.73 3.09 13.15s2.21-.56 2.99-.39c-.24 1.06-2.15 1.26-2.17 2.36-.01.88 1.51 3.94 2.16 4.78-3.13 2.51-2.72-5.09-5.32-4.84-12.16 2.68-23.96 6.84-36.04 9.79-3.85.94-15.22 3.93-18.48 3.39-5.13-.85-5.25-5.05-11.87-2.14-3.72 1.63-3.49 4.38-6.81.05-2.04-2.66-4.53-7.64-4.61-11-.04-1.55.48-2.83.48-4.31.04-9.56-.58-19.11-.44-28.57.09-6.1-.38-12.19 1.93-17.99.56 6.17-.7 12.65-.67 18.86.04 6.88 1.01 13.92 1.15 20.83.09 4.33-.79 9.53-.27 13.79.2 1.67 4.15 8.45 5.64 9.11 3.71-2.1 6.5-3.79 10.94-2.31 1.6.53 3.09 2.1 4.53 2.4 4.19.88 19.45-3.51 24.45-4.79 10.21-2.61 20.27-5.85 30.47-8.52-.69-4.15-2.5-8.12-2.85-12.36-.95-11.53.45-23.52.88-35.04.25-6.74-.02-13.62.42-20.36.72-11.04 2.87-22.02 3.02-33.12-17.05 5.8-35.98 4.27-52.38 12.12.29.84 2.5.44 3.19.37 9.59-.96 19.78-4.41 29.5-5.13 1.56-.12 4.7-.45 5.6.88.66.98 1.42 5.35 1.53 6.7.44 5.33-.72 10.7-.88 15.99-.52 18.17.91 36.4-1.29 54.55-.58 3.21-6.9-.74-9.34-1.02-5.75-.68-11.88 1.54-17.28 3.41-4.86 1.69-15.5 7.4-19.63 7.54-.74.03-1.47-.17-2.2-.19.64-5.21-1.02-10.22-1.33-15.33-.96-15.39.79-32.35.47-48.08-.15-7.23 0-17.23-.87-24.24-.16-1.28-.9-2.05-.92-3.45-.03-1.71 1.21-3.74 2.45-1.98.19.28.59 5.72.64 6.72.81 16.86.57 34.6.44 51.55-.05 5.99-.87 12.12-.47 18.18.33 4.94 1.88 10.26 1.75 15.35 4.83-.51 8.97-3.27 13.42-4.97 7.71-2.94 17.37-6.91 25.71-5.81 1.89.25 3.53 1.57 5.45 1.7 2.44-15.47.45-31 .85-46.55.17-6.55 1.34-13.89 1.35-20.33 0-1.26-.99-8.66-1.55-9.31-.49-.56-1.06-.47-1.71-.45-13.16.54-28.37 6.44-41.16 6.94-.49.02-1.46.19-1.07-.64.26-.54 9.49-4.68 10.83-5.19 11.97-4.59 24.87-4.78 37.31-7.28 2.32-.47 9.21-1.85 10.89-2.96.65-.43.98-.63 1.13-1.46.37-1.96.11-13.32-1.06-14.5-1.33-1.34-3.99.69-5.63.89-3.65.43-10.24.7-13.86.41-7.18-.57-13.93-4.03-21.2-4.34-6.52-.28-13.01 1.55-19.48 1.77-5.04.17-10.5-1.39-15.2-.91-2.18.22-2.71 2.2-4.95.89l3.04 4.54c1.93 2.29 4.88 3.84 5.18 7.15l-8.88-9.08c-.83-.35-.95 1.51-1.03 1.99-2.61 18.1 1.65 39.43 2.98 57.53 1.08 14.81-4.02 29.31-4.36 44.58-.03 1.32.67 2.68.48 3.87-.34 2.14-2.17 1.17-2.17.46v-8.44c-.78.24-1.07 1.2-1.38 1.87-5.36 11.45.86 29.6 2.61 41.7 1.04 7.19.57 14.85 3.53 21.56-.8 1.17-1.76.18-3.04.4-3.88.66-9.46 3.43-13.52 4.7-4.76 1.49-9.72 2.54-14.42 4.2-1.69.59-10.04 3.91-10.83 4.75-.44.47-.71.85-.67 1.54l.9 11.26-.43 4.98c6.9-.95 16-9.48 23.05-7.69 3.82.97 2.37 4.33.32 6.38 1.71.09 3.32-.5 4.94-.89 10.99-2.7 23.48-7.1 34.35-10.67 11.08-3.65 21.93-8.04 33.12-11.03 1.39-.37 2.94-2.35 4.64-1.85-2.51 3.42-6.25 3.14-9.86 4.43-9.32 3.33-18.46 7.09-27.91 10.19-13.08 4.29-28.04 7.46-40.69 12.12-3.83 1.41-3.46 2.63-.3 4.82 4.42 3.06 10.1-1.4 14.97-1.31 3.01.05 3.17 2.3 5.11 2.47 2.96.26 3.49-1.65 3.99-1.78 1.01-.26 5.03-.05 6.21.2 4.48.92 5 4.62 7.75 6.97 1.23 1.05 2.86 1.28 3.9 2.58-.02.87-6.24 2.65-7.35 2.82-.33.68 1.31 1.33.43 1.94-.96.68-3 .59-4.24.95-10.52 3.09-18.6 10.68-28.66 13.76-4.53 1.39-9.51 1.67-13.94 2.94-4.9 1.41-12.09 5.87-17.02 5.94-2.66.03-3.07-3.47-4.18-5.33-.55-.92-3.45-4.54-3.38-4.83.09-.39.65-.58 1.04-.61 2.92-.26 6.74-1.42 9.87-2.33 8.21-2.39 14.48-5.4 22.18-8.56 3.12-1.28 8.48-1.03 8.46-5.6-1.22-1.08-24.31 8.94-27.94 9.93-2.51.68-5.11.94-7.65 1.44-1.38.27-6.52 2.5-7.21.48-1.02-2.96 2.68-1.07 3.51-1.1 7.97-.34 17.91-5.33 25.34-8.05 7.67-2.81 15.45-5.34 23.05-8.34.12-.72-1.06-.47-1.53-.44-2.51.16-6.71 1.25-8.98.78-.44-.09-4.56-2.36-5.06-2.73-.95-.68-2.11-3.06-2.89-3.19-.37-.06-5.23 3.43-6.35 3.93-4.78 2.13-8.29 1.47-13.06 2.09-4.74.61-9.35 1.88-14.07 2.16-.03-1.25.99-2.04.77-3.35-.06-.37.46-.68-.53-.53-14.43 4.38-29.01 8.41-43.88 11.1-1.25.23-9.69 1.81-10.03 1.43-.04-.05-.05-1.25 0-1.29.27-.29 6.57-.84 7.8-1.08 7.1-1.33 14.97-3.1 21.99-4.85 6.72-1.67 21.01-5.07 26.73-7.91 1.44-.71 2.42-2.13 3.95-2.98 2.09-1.15 4.88-1.35 6.15-3.81 1.01-1.97.28-9.01 0-11.58-.12-1.08-.24-3.73-1.44-3.74-.77 0-8.68 3.72-10.4 4.34-6.97 2.5-14.24 4.02-21.23 6.48-2.1.74-13.25 5.97-14.52 5.02-.44-1.11-.74-2.75-.84-3.94-.98-11.77-1.71-24.98-2.19-36.77-.39-9.74.11-19.56.89-29.24-.45-.45-7.68 1.42-8.76 1.85-2.65 1.04-1.19 1.47-1.18 3.55.09 11.01.05 34.86 3.55 44.49.53 1.47 1.18 4.55 2.92 3.36.52 1.36-1.28 2.27-2.12 1.69-.45-.31-3.57-9.06-3.81-10.26-1.13-5.67-1.47-14.24-1.86-20.22-.32-4.87.31-11.82-.46-16.42-.13-.77-2.12-3.94-2.57-4.14.46.34 1.61.6 2.16 1.3v-2.6h-3.46c.08.38.98 1.07 1.3 1.29Zm67.1 68.82c3.77-.24 7.63-.76 11.34-1.42 4.52-.81 9.07-.92 11.79-5.09 2.49-3.82-3.04-3.01-5.37-2.34-5.88 1.71-11.05 5.95-16.92 7.77zm16.88-.42h-1.3v.86c.6.13 1.15-.23 1.3-.86m-1.73 1.3c-3.71-1.2-6.46.94-9.82 2.09l-6.2 3.1c5.63.21 12.33-.29 16.02-5.19m-12.56.86c-5.64.94-12.35 1.06-16.02 6.05 4.48-.55 9.52-2.43 13.57-4.39.83-.4 2.05-.77 2.44-1.66Zm25.12 3.89c1.37.35 10.78-.87 10.81-1.94.02-.57-1.74-.87-2.31-.6l-8.5 2.55Zm32.89 5.64c-4.28-1.29-4.76-7.57-9.95-7.36l4.31 9.32c.38.22 4.38-1.1 5.11-1.43.38-.17.65.06.54-.53Zm-14.06-6.92c-.16 0-2.8 1.34-2.81 1.5-.02.79 2.59 1.07 3.25-.21.33-.65-.11-1.29-.44-1.3Zm6.22 9.88c.71-1.13-2.4-7.52-3.62-8.59-1.91 3.03-4.22 1.69-7.11 2.63-.33.48 1.01 4.81 1.33 5.08s2.97-.06 3.96.16c1.17.27 1.78 1.57 2.7 1.66.43.04 2.64-.78 2.74-.94m-11.64-2.54c-1.92-5.98-5.48-1.63-9.52-.85.86 5.05 6.36 1.19 9.52.85m-12.55 3.03c1.8.37 3.24-1.08 1.09-1.73-.53.55-1.25.91-1.09 1.73m8.23 3.03c.15.11 2.37-.09 3.15.09 1.12.26 1.88 1.64 2.61 1.57.78-.07 5.25-2.67 5.06-3.61-.4-1.9-8.71.28-10.2 1.04-.3.15-1.49.24-.62.9Zm-8.66 8.22c.43.37 10.37-3.75 10.38-4.54-1.14-2.73-10.5-.59-10.76.47-.21.83 1.42 2.87.38 4.08Zm-4-3.37c-3.34.36-1.7 2.11.77 2.11 2.3 0 1.45-2.34-.77-2.11m.96 4.67c-.43-.77-4.66-2.14-5.21-1.99-1.61.45-5.99 4.81-7.78 5.89 4.44-.46 8.69-2.7 12.99-3.9m-12.55.44c-.97.1-2.05.73-2.9 1.21-.65.37-1.89 1.18-2.29 1.81 1.91-.13 4.06-1.5 5.19-3.02m-13.42.87c-.94-.69-8.77 2.04-10.39 2.37 4.44 4.57 9.79 4.8 15.58 2.81-.24-.77-1.07-.35-1.23-1.61-.09-.77.05-1.17.36-1.84-.58-.46-7 2.22-4.33-1.73Zm-1.3 8.22c-2.46.13-4.66-1.04-6.92-1.73.04 4.51 4.38 4.18 6.92 1.73"/><path fill="currentColor" d="M137.92 126.87c1.47-1.43 2.06 3.39 2.12 4.16.09 1.08-.82 2.33.09 3.6 1.39.1 2.65-.58 4.08-.43 2.58.27 1 1.22.66 2.43-3.85 13.65 1.65 33.46 3.01 47.6.53 5.46.44 10.98.87 16.45-.01.35.41 1.08.65 1.08h15.8c.14-1.33-1.23-2.45-1.53-3.44-.86-2.85 1.32-9.76 1.55-13.21.73-10.73-.96-28.74-3.16-39.3-1.01-4.85-4.23-12.26-4.61-16.61-.08-.91-.27-1.7.61-2.32 1.69 1.48 1.31 3.69 2.63 5.59 2.59 3.75 5.66 1.68 9.04 1.74 10.64.2 22.67 2.52 33.34 3.06 8.39.43 16.39-.92 25.07.04 1.58.17 10.64 2.14 11.1 1.68.21-.21-.68-3.6 1.51-3.03 1.54.4-.19 1.04-.22 1.14-1.34 4.78 5.04 1.79 6.06 4.7-.97.42-1.58-.66-2.8-.67-.43 0-2.84.49-2.84.67 1.02 8.41 4.22 16.46 5.51 24.79 1.1 7.14.46 14.42 1.98 21.4.43 1.97 1.41 4.04 1.85 5.94.34 1.46.78 8.19 1.82 8.67.84.39 9.26 1.28 10.72 1.33.39.01.87.08 1.22 0 1.07-.25 1.29-10.47.72-12.14-1.05.26-1.84 2.58-3.03 1.94 2.09-5 3.32-12.72.89-17.77-.54-1.11-1.96-2.06-2.07-3.06-.2-1.82 2.17-5.74 2.91-7.52-4.72 1.86-7.78.22-10.82-3.47.57 6.07 3.05 11.84 3.48 17.95.44 6.24-.55 12.63.41 18.85-.62 0-1.58.17-1.97-.41-.15-.23-.66-4.78-.66-5.44-.02-4.13.79-8.57.46-12.98-.5-6.74-3.04-13.43-4.2-20.05-.91-5.17-.71-10.91-1.53-15.78-.31-1.81-1.83-2.85-1.63-4.65 3.78-.63 2.44 1.23 3.69 3.02 1.59 2.28 10.82 1.87 13.84 2.17 10.49 1.06 20.11 2.09 30.76 1.31 2.74-.2 10.55-2.81 12.32-1.09.85.82 2.41 7.66 2.55 9.14s-.31 7.2.48 7.75c1.18.82 2.17-.47 2.57 2.63 1.12 8.73.48 18.02 1.35 26.79.63 6.37 2.52 12.83 3.04 19.25 5.88-.17 11.67 1.44 17.5 1.77 2.27.13 13.14.32 14.51-.24.33-.14.63-.57.9-.83l.84-43.09c-.42-.48-2.14 1.45-2.8 1.53-10.72 1.35-21.63-1.24-32.01-4.16-.83-.23-3.14-.48-2.84-1.7 1.75-.53 2.85.52 4.14.84 9.1 2.27 20.44 6.32 29.75 4.26 1.93-.43 4.33-4.63 7.23-4.23-2.83 2.45-1.55 6.64-1.71 10.19-.4 8.7-.77 17.66-.9 26.37-.05 3.61-.01 7.2.43 10.78.22.79 8.23.96 9.76 1.15 2.33.29-1.24 1.57-2.21 1.69-5.84.72-9.36-1.45-14.25-1.61-3.52-.12-8.12.74-11.67.79-7.45.12-15.03-.85-22.36-.63-.49.69-.57 5.05-.39 6.03.27 1.44 1.6 1.15 2.81 1.08 5.9-.36 16.68-3.26 22-2.07 4.35.97 2.5 7.61 2.45 10.5-.19 12.54 1.29 22.04 2.61 34.22.4 3.65.25 7.41.87 11.04.72.71 8.97-2.92 9.1-4.54.09-1.12-1.6-3.91 1.17-2.69.14.06.33 1.24 1.56 1.07 1.5-.2 4.1-3.42 6.34-2.93-1.12 4.47-4.99 6.91-4.76 11.89.42 8.94 2.12 18.89 5.19 27.28.46 1.26 3.46 6.92 3.02 7.55-.09.12-2.03.59-2.15.45.3-2.47-1.56-4.34-2.38-6.5-3-7.95-3.92-16.32-5.19-24.68-1.07-1.33-3.94-.84-4.59-1.08-.38-.14-.84-1.06-1.59-1.4-4.99-2.23-5.96-2.3-5.76 3.17.3 8.17.8 18.77 1.8 26.77.41 3.31 2.95 11.35 2.56 13.89-.27 1.74-1.57.67-2.81.64-1.66-.03-3.34.07-5 .02.02-.88-.28-2.57.66-3.03 1.12-.55.16 1.7 1.35 2.1.8.27 4.18.32 4.45-.64.06-.2-.4-3.61-.5-4.17-1.51-8.1-1.88-12.24-2.5-20.44-.5-6.57-1.25-13.14-1.73-19.7l-29.88 4.98c-.58.49-.63 3.88-.44 4.68.17.7 2.08.12 1.71 3.51-.15 1.33-2.53 6.27-3.65 6.75-.86.36-.65-.59-.66-1.09-.04-1.37 1.03-6.78.4-7.52l-12.94-.91c-.48-.43 1.49-2.03 1.3-2.8-.22-.92-2.16.2-1.71-2.14.73-3.82 7.9-5.86 10.66-8 .81-.33.54.93 1.28 1.19 1.72.61 4.6-.67 6.45-.8 2.03-.13 12.87.41 13.44-.41.6-11.91-3.07-23.53-1.97-35.53-4.62-.41-9.09.85-13.64 1.3-6.14.6-12.97 1.44-19.05 1.73-1.09.05-2.47.33-3.23-.64l36.35-3.45c.62.44 1.15.93 1.3 1.73.59 3.16-.18 8.59 0 12.13.22 4.49 1.43 9.11 1.74 13.41.17 2.34-.49 7.75.07 9.46.35 1.06 3.05.78 4.07.73 2.61-.14 5.3-1.16 7.99-.88.69-10.86-2.45-21.5-3.03-32.26-.22-4.12-.11-8.84-.02-13 .03-1.49 1.32-9.8-.27-10.17-1.49-.35-6.68.27-8.58.45-3.83.36-10.7.92-14.19 1.83-1.13.29-1.9 1.52-2.32 1.59-.39.07-1.17-.75-2.08-.85-4.27-.47-12.12-.14-16.41.52-2.1.32-11.86 3.13-12.61 4.7-.55 1.15-.31 13.91-.23 16.25.51 15.44.83 25.91-1.84 41.41-.87 5.03-4.57 16.19-2.95 20.52.17.45.23 1.26.91.6.27-.26 1.43-6.28 1.61-7.27 1.06-5.78 1.51-11.7 2.4-17.51l.76-.11c-.74 5.87-1.16 11.83-2.28 17.64-.38 1.95-1.91 9.76-3.34 10.52-2.4 1.27-1.35-1.87-1.44-2.55-1.31-9.3 1.01-13.08 2.61-21.82 2.69-14.77 2.34-24.53 1.84-39.25-.09-2.66.51-17.41-.52-18.31-.41-.35-2.08-.31-2.07-.77 2.14-3.44 2.73-5.72 1.31-9.72 3.75-1.18 2.3 7.92 3.66 8.15.74.13 6.52-2.36 8.02-2.74 6.43-1.63 13.12-.89 19.7-1.51.35.01 1.08-.41 1.08-.65v-6.71c-2.8-1.13-5.76-.03-8.42.02-12.56.23-25.11-1.54-37.7-1.73-23.03-.35-46.62.59-69.68 2.15-12.61.85-24.82 3.45-37.47 1.1-5.94-1.1-11.45-4.2-17.2-5.74-13.81-3.7-28.66-2.53-42.73-3.16-1.63-.07-3.55-.85-5.2-.89-2.13-.05-5.69 1.27-7.31.85-2.25-.58 2.42-2.09 3.2-1.69l-2.6-2.16c2.76-.53 4.93 1.45 7.57 1.73 7.61.83 16.91-.2 24.7.45l30.07-2.62c-.57-6.23-.31-12.58-.87-18.82-.8-8.91-2.52-18.08-3.84-26.89-1.02-6.76-1.54-13.55-4.01-20.01-3.48.04-7.07-.31-10.55-.09-2.92.18-6.16 1.14-9.08 1.31-10.74.63-21.08-4.59-31.81-4.33-.7-.54 0-.78.64-.86.97-.13 2.45-.06 3.47 0 6.92.42 14.46 3.4 21.2 3.91 8.64.66 17.11-2.12 25.77-1.32.21-1.11-.28-7.52 0-7.79Zm6.06 8.66c-.7-.06-3.3-.04-3.48.72-.59 2.46 1.85 6.18 1.75 8.8.57.71.79-.06.86-.65.37-2.94.23-5.97.87-8.87m95.58 5.28c-9.53-2.85-19.27-2.78-29.14-2.71-7.46.06-11.59-.77-18.6-1.28-3.52-.25-7.28.22-10.81-.01-2.92-.19-6.18-1.16-9.08-1.31-3.69-.19-7.03.99-10.62.02 1.37 7.4 3.37 14.86 4.27 22.35.97 8.04 1.94 20.12 1.35 28.08-.22 2.98-1.95 8.26-1.72 10.81.11 1.22 2.44 3.43 2.66 4.92l81.75.94c.24-.25-.41-5.69-.56-6.59-.64-3.91-2.48-8.44-2.87-12.28-.55-5.4-.2-11.22-.95-16.8-1.19-8.83-4.4-17.32-5.67-26.14Zm66.27 4.29c-3.16.07-6.12 1.35-9.26 1.67-11.02 1.13-21.95-.3-32.9-1.29-4.41-.4-8.91-.11-13.2-1.3-.59.62.5 15.1 1.95 16.88.59-2.69-.22-10.8 3.12-11.59 3.63-.86 7.27 2.81 10.38 4.58 2.08 1.19 4.52 1.73 6.18 3.33.01.66-3.9.97-4.31 1.54-.15.2.46 1.28.42 1.9-.05.72-.68 1.28-.76 1.85-.38 2.73.49 3.76.72 6.01.45 4.33-1.02 8.62-1.27 12.92-.44 7.43.39 15.29.02 22.73 7.01 1.4 14.29 1.52 21.31 2.72 6.47 1.11 13.41 3.73 20.05 3.8 2.23.02 1.57-3.78 1.51-5.45-.37-10.85-2.52-22.63-2.18-33.31.08-2.66.78-5.98.88-8.64.24-6.42-.27-12.37-2.67-18.36Zm-37.61 11.64c-2.13-.35-8.18-5.49-9.7-5.23-.61 1.28-2.58 6.67-.82 7.3.71.26 5.39 1.24 5.76.94l-.43-1.29c1.96.06 4.15.31 5.19-1.73Zm-2.6 3.89c-.12-.14-2.58.54-3.68.44s-6.8-1.65-7.14-1.3c.18 3.23 3.1 6.11 6.37 4.85.35-.14 3.75-2.32 4.18-2.66.41-.31.37-1.21.27-1.33m45.46 3.46c-1.02.6-1.2 3.37-1.29 4.55-1 13.49 2.43 27.53 1.73 41.12-.11 1.48 3.2 1.41 3.71.68.91-1.3-2.12-15.59-2.4-18.43l-1.74-27.92Zm-45.46 3.04c-.66-.6-.75.22-.99.54-.44.6-1.95 3.94-1.95 4.52 0 .24 2.11 3.49 2.31 3.59.84.42.62-.68.7-1.01.35-1.34.77-6.88-.07-7.64m38.54 44.15c-6.13-.37-11.99-2.44-18.02-3.41-7.93-1.27-16.26-1.61-23.85-2.99-2.23-.41-6.41-.9-8.62-.94-1.1-.02-1.72.8-2.46.75-.83-.06-2.28-1.07-3.95-1.22-10.95-1.01-23.1.94-34.23.47-22.83-.96-45.48-1.68-68.4-.9l-23.14 2.19 13.87 1.92c8.4 1.66 15.96 6.02 24.49 7.11 12.79 1.64 29.98-.85 43.26-1.66 21.61-1.32 45.52-3.1 67.1-2.2 10.24.43 22.34 2.9 32.47 1.77.65-.07 1.34-.09 1.5-.88Zm21.64.87c-2.23-.76-4.61-.35-6.92-.43l4.11.86 2.81-.42Zm32.04 55.4c-.3-.24-3.3 1.2-3.39 1.36-.34.54-.1 2.2.59 2.53s2.14-3.41 2.81-3.89Zm-5.63 3.47c-.41-.42-2.85 1-3.03 1.72 1.55.06 3.34.38 3.03-1.72m1.29 3.46h-3.03c-.07.85.3 3.11 1.09 3.46 1.46.65 1.55-2.61 1.94-3.46m-4.76 2.16c.25-2.77-2.67-1.51-4.32-1.29.2.58 2.01.97 2.58 1.1s1.14.28 1.75.2Zm-18.18 0c-1.46-.52-3.11.7-4.19.76-.67.03-3.33-1.06-4.69-1.19-2.28-.21-5.92-.18-8.24-.03-1.32.09-3.45.29-4.52 1.1l4.46-.14c.98.31.96 1.54 1.47 1.66 2.61.63 11.87-.44 14.71-1.25.73-.21 1.21.32 1-.92Zm-26.84 2.6c-.91-.11-1.7.93-2.16 1.72.91.11 1.7-.93 2.16-1.72m-4.33.87c-.5-.47-2.63 1.68-2.16 2.16.63.65 2.32-2.01 2.16-2.16m8.66 6.49c-.09-1.96.78-5.61-2.05-6.01-1.33-.19-4.67 3.27-6.58 3.22l-1.32 1.27c-.01 1.18 8.68 1.68 9.95 1.52M648.31 128.17c.04.64-1.55.76-2 .81-18.38 1.93-37.49.24-56.17 2.7-38.6 5.09-77.88 21.4-106.77 47.77-12.08 11.02-15.7 19.8-16.87 35.94-.66 9.08-1.48 16.61-2.54 25.6-2.13 18.1 1.14 37.19 1.27 55.34.05 7.11-1.63 14.84-1.6 22.16.08 22.07.08 44.21 2 66.16 1.47 16.78 2.84 31.58 3.04 48.48.05 3.93 1.3 14.41-.1 17.21s-2.12.69-3.37.9-6.17 2.78-6.85 2.38c-.13-.07-.98-1.61-1.83-2.29-3.88-3.1-9.28-1.84-14.06-1.96-1.44-.04-2.74-.67-4.33-.47-2.08.25-4.09 2.98-6.69 2.18l3.44-1.53c.39-.32 1.27-.85.46-1.29-1.73-.94-7.59-.8-9.66-1.6-.59-.23-.86-.56-.73-1.21 5.87.12 11.7 1.99 17.74 1.29-.19-.73-1.93-.98-2.59-1.12-2.24-.49-3.25-.35-5.66-1.66-.75-.41-2.35-1.15-1.05-1.97l21.33 6.37c1.66-.02 6.35.93 6.93-1.05.71-2.41-.15-8.55.09-11.59.19-2.39 1.34-5.41 1.32-7.8-.01-1.99-1.14-4.73-1.33-6.94-.89-10.76-.17-21.74-.42-32.48-.09-3.68-1.15-7.93-1.33-11.65-.28-5.87.59-11.69.45-17.55-1.57.25-2.33 1.34-4.11 1.34-5.08 0-12.08-1.62-17.32-2.2-5.02-.56-10-.66-15.02-1.43-2.02-.31-4.25-1.34-6.23-1.56s-7.87.4-9.01-.44c-.4-.29-.34-1.23-.25-1.34.19-.23 4.59 1.13 5.84.09 13.18 1.73 28.32 5.33 41.58 5.55.83.01 4.39-.98 4.54-1.61.49-2.03-.13-7.34-.03-9.9.35-9.62 1.07-19.77.47-29.44-.59-9.53-3.46-17.04-3.04-27.25.53-12.96 2.7-26.04 3.48-38.95.41-6.83-1.79-13.21-2.18-19.93-.84-14.49 8.27-32.1 12.62-45.81 2.75-2.25 10.3-11.86 13.24-12.34.93-.15 1.58.44 2.57.05 1.7-.66 8.37-6.46 10.64-8.01 41.4-28.34 77.86-37.82 128.22-37.54 2.74.01 5.53.09 8.26 0 4.55-.15 9.05-1.24 13.62-.45ZM472.56 189.2l3.45-4.76c-1.61 1.09-3.15 2.77-3.45 4.76m-9.97 51.51c1.66-9.89 3.17-19.77 2.6-29.87l-4.12 12.97c-.99 4.38-.44 9.6.28 14.03.14.89.28 2.47 1.25 2.86Zm-.43 72.72c.03-3.91 1.09-8.06 1.3-11.91.51-9.34-.93-18.8-1.31-28.11-.17-4.1.34-8.28-.2-12.36-.81 0-.99 12.37-1.09 13.64-.83 10.55-3.13 21.32-.65 31.83l1.95 6.92Zm.44 24.68v-6.06h-.43v6.06zm4.32 110.38c.15-.11.82-3.29.83-3.73.48-18.88-1.97-36.77-3.85-55.37-.67-6.59-.58-13.33-1.29-19.92-.07-.65-.1-1.34-.88-1.5.43 1.9-.44 4.17-.44 5.84.03 7.21 1.31 14.8 1.32 22.53 0 4.75.48 7.19.84 11.68.3 3.72-.62 7.21-.44 10.83.14 2.84 1.27 5.82 1.34 8.63.08 3.12-1.13 6.14-1.31 9.11-.24 3.79.96 7.55-.01 11.47.8-.42 3.74.55 3.89.43m-1.73.87h-2.16v.86c.19.18 2.45-.27 2.16-.86"/><path fill="currentColor" d="M72.03 220.46c1.69.96 2.46 11.2 4.65 13.33.43.42 1.2.29 1.53.72 1.06 1.36.76 5.33 3.42 6.21l.44-7.36h2.17c.4 2.53-.39 5.19-.45 7.56-.68 23.8-3.14 47.29-3.86 71.03-.03.83-.34 1.56-.45 2.36 4.9-.78 9.64-2.57 14.62-3.34 12.58-1.95 25.34-.37 37.99-.97 8.54-.4 15.9-1.95 24.64-1.73 3.14.08 5.29.94 6.5-2.19 4.51-11.62 3.99-24.35 4.99-36.56.5-6.01 1.92-12.75 2.18-18.6.46-10.31-3.2-10.34-12.35-9.75-13.04.84-26.24 6.37-38.59 7.3-1.1.08-5.81.36-5.73-1.37.09-1.85 3.61-4.87 2.88-2.33-.85 2.95-.6 2.69 2.9 2.45 12.23-.84 25.48-6.58 38.54-7.35 5.06-.3 12.05-1.22 13.94 4.66 1.56 4.83-1.12 16.73-1.61 22.39-1.06 12.28-.71 24.77-4.45 36.67-1.64 5.19-1.29 6.13-7.02 6-9.5-.22-17.83.81-27.27 1.27-14.31.71-28.6-.74-42.65 2.37-2.68.59-8.29 2.95-10.54 2.32-1.2-.34.08-1.62.17-2.74.39-5.32-.3-11.1-.03-16.48.59-11.67 2.6-23.61 3.07-35.46.17-4.34.64-11.1.42-15.15-.21-4-2.79-4.94-3.71-7.57-.29-.84-.04-1.9-.41-2.62-.4-.8-1.72-.71-2.35-1.54-.98-1.29-2.55-6.96-3.29-8.83-.21-.52-.45-1.19-1.07-1.3-.78 9.11-1.34 18.78-.89 27.94.35 7.05 1.88 14.5 2.2 21.61.69 15.32.39 31.07.68 46.41.03 1.66-.8 11.43-.27 11.83 33.78-9.05 69.47-20.99 104.76-13.42-.7-2.06-1.24-4.25-1.61-6.4-2.94-17.2-2.48-34.93-1.88-52.27.06-1.64 1.51-3.86-.85-3.88 2.21-.84 1.06-3.15 1.3-5.19.28-2.31 2.53-13.56.89-14.75-.98-.71-4.33.31-5.85.25-2.92-.12-6.62-1.77-9.59-2.12-4.5-.54-9.6-.36-14.24-.92-8.18-.99-16.47-2.98-24.68-3.45s-16.9-.34-25.09-.45c-5.27-.08-10.2-.05-15.38.88-.21-1.25.27-.71 1-.92 5.52-1.57 17.89-.79 24.3-.83 17.23-.09 34.38 2.88 51.53 4.35 6.12.53 11.7 3.19 17.91 1.67.58-.36.87-6.88 1.77-7.54 2.77-2.02 1.34 4.77 1.3 5.63-.59 15.9-3.14 31.68-3.03 47.65.09 13.15 1.56 24.1 3.82 36.88.12.66-.42 1.39-.28 1.98.18.74 1.85 1.2.7 2.36-1.28 1.28-1.39-.44-2.09-.95-.83-.6-5.86-1.6-7.24-1.85-25.02-4.51-55.92 3-80.27 9.52-2.12.57-16.57 4.4-16.78 5.31-.18.77 2.04 2.38-.23 2.8-.5.19-2.17-2.62-2.2-2.8-.41-2.78.62-8.61.6-11.71-.09-15.27-.58-31.01-1.12-46.32-.55-15.48-2.22-30.85-1.37-46.3.08-1.37-.19-7.84.44-8.43.13-.12 2.15-.13 2.49.07ZM597.23 292.66c.37 1.94-2.36.31-2.59 1.52-.32 1.66 2.93 1.44 3.8 1.79.59.24.63 1.11 1.56 1.5 3.2 1.34 7.22.76 10.96 2.9 6.27 3.58 9.14 15.62 7.83 22.27-.98 4.97-2.86 1.87-3.56 2.05-.15.04-1.79 1.99-1.87 2.46-.27 1.48-.4 10.44.98 10.52.74-.42 11.87-5.85 11.04-6.48-2.79.03-5.91 1.81-8.55 2.06-.51.05-1.42-.05-1.4-.55.07-1.35 7.84-3.83 9.35-4.06.66-.1 2.67.05 2.76-.05.16-.16-.12-3.21 0-3.9 2.96-.34 1.92 1.41 2.16 3.26.07.54-.2.82.66.65 1.89-.37 4.38-3.4 5.72-3.81 1.06-.32 2.82-.15 4.01-.53-1.19 3.43-6.04 3.51-6.92 7.36 1.2-.18 7.19-3.12 7.79-2.59.16.78-.39 1.08-.89 1.49-1.29 1.05-8.28 4.44-8.56 5.29-.63 1.88.66 4.15.79 6 .13 1.75.4 9.23-.86 9.96-2.99 1.72-1.01-1.05-.88-1.75.72-3.81-.47-9-1.29-12.76l-14.26 6.95c-.56 1.31 1.62 1.9 1.25 3.17-.41 1.41-3.26.9-4.3 1.36-1.4.61-5.25 9.68-5.76 11.55-.73 2.68-1.01 6.01-.73 8.78.3 3 3.18 5.84-.22 7.14.43-2.41-1.18-4.34-1.47-6.75-.84-7.21 2.94-14.67 6.01-20.94-2.91-1.02-5.94-.05-7.79 2.38-2.07 2.7-5.34 11.04-7.01 14.64-.32.69-1.1 3.61-1.26 3.72-.95.61-1.38 0-1.24-1.02.2-1.45 4.56-10.59 5.53-12.65 1.81-3.85 3.45-8.95 7.56-10.62 2.56-1.04 7.93-.82 7.23-4.67-.45-.47-10.61 4.26-11.66 5-.42.3-3.74 3.26-3.88 3.48-1.01 1.65.32 3.48-2.39 4.53-2.1.81-4.36.16-6.5.42-.83.1-1.6.89-2.18.87-.22 0-.21-.89-.47-.91-2.27-.17-7.14 2.61-9.52 3.03-.89.16-1.23.19-1.06-.84 3.43-1.03 6.61-2.54 10.22-2.98 2.23-.27 7.21.34 8.72-.37s.57-3.56 2.27-4.87c-.33-.26-3.91.95-4.74 1.1-.45.08-1.42.57-1.32-.24 2.64-1.01 8.5-3.06 10.15-5.22.98-1.29 1.15-3.31 3.06-3.86s-1.24 2.95-.44 3.45l9.12-4.32c.22-.36-1.14-5.89-1.15-7.15-.01-1.4 1.24-6.45.84-7.08-.28-.45-4.4-1.94-5.32-1.79-.74.12-2.51 1.75-2.84-.21.48-.97 3.52-.76 4.5-.62 2.04.29 7.77 3.8 8.81.94 1.97-5.44-1.58-16.14-5.72-20.05s-13.21-3.65-18.66-5.06c-1.09 1.88-2.6 4.92 0 6.4 2.07 1.18 3.72-.67 5.7-.87 3.91-.38 2.01 2.49 3.41 4.31.93 1.21 2.49.76 3.26 1.5 1.44 1.4-1.18 5.69-2.24 6.88-.75.83-3.12 2.13-3.33 2.73-.46 1.34.41 4.33-.27 5.36-.39.58-2.39.72-3.22 1.11-3.18 1.5-11.82 14.9-12.15 18.62-.08.85.54 3.07.42 3.19-.16.16-3.94.52-4.56.45-1.28-.14-2.03-1.04-3.35-.82-.24.04-4.39 1.32-4.67 1.43-3.75 1.5-6.12 4.92-10.8 1.53 1.17 3.83 5.65 4.89 9.2 4.23 2.18-.41 2.95-2.14 5.73-2.1 1.74.02 2.49.92 4.11.91-1.57 3.03-3.38-.22-5.37 0-1.15.12-1.85 1.15-2.85 1.52-3.55 1.32-6.95 1.64-10.28-.55-1.45-.96-1.66-1.96-2.69-2.93-2.7-2.53-4-.84-7.17-1.05-2.46-.16-5.12-1.59-5.82-4.1 2.69-2.64 5.18.29 7.67.95 2.07.55 4.2.1 6.51.85 3.03.98 3.81 3.03 7.47 2.08 1.21-.31 2.5-1.6 3.64-1.98.88-.29 5.08-1.6 5.68-1.69 2.25-.34 3.37 1.33 5.41.66.6-.43.39-2.75.6-3.73.85-4.06 4.1-8.28 6.55-11.63.99-1.35 6.61-7.65 6.65-8.46.22-3.93-5.73-6.19-6.93-9.52-1.77-4.92 1.08-8.48-1.59-12.58 1.57-1.34 1.55-4.22 3.12-5.45.69-.54 1.49.01 2.07-.35 1.3-.8 1.85-2.99 4.64-1.77Zm2.17 11.68c-1.85-.43-3.37 1.15-5.03 1.28-1.06.09-2.37-.52-2.91-.37-2.48.69-.91 6.84.06 8.49 1.36 2.29 4.33 3.67 5.29 6.18.8.09.44-.94.22-1.31-.31-.53-2.22-.98-1.52-1.71 1.16-1.21 3.13.39 3.61.36 1.96-.13 4.22-4.61 4.43-6.41.28-2.41-1-1.46-2.43-1.93-1.94-.64-1.79-2.88-1.71-4.57Zm32.03 25.55c-.65-.65-1.85 1.29-.65 1.29.29 0 .9-1.04.65-1.29m-16.88 11.25 12.08-6.75c1.85-.43 2.38-2.84.33-2.27-.46.13-3.78 2.52-4.76 3.04-1.28.67-7.31 3.34-7.58 4.11-.2.56-.04 1.28-.07 1.88Zm-61.48 6.5-4.75-2.17c0 1.55 2.16 2.24 3.35 2.5.43.09 1.52.44 1.41-.33Zm57.58-2.17-3.89 1.29h3.9v-1.29ZM209.21 60.77c1.51 1.75-.19 1.54-.5 2.02-.57.86-.36 18.1-.24 20.59.48 10.14 3.43 21.24 3.52 31.15.03 3.31-2.72.98-5.47 1.06-10.57.29-15.18-3.71-25.09-4.74-2.66-.27-7.01-.76-9.53-.45-1.71.21-2.67 1.91-3.92.91-1.15-.93-.07-1.97-.25-3.17-.15-.99-1.67-3.1-2.11-4.42-2.74-8.05-2.79-23.33-2.6-32.07.1-4.53 1.35-10.78.44-15.12-.31-1.49-4.73-2.43-3.45-3.69.8-.79 4.58 1.97 6.28 2.16 9.65 1.1 36.15-2.1 42.93 5.76Zm-3.34 2.01c-.93-4.58-7.47-5.48-11.51-5.98-2.98-.37-24.06-1.02-25.27-.27-.58.36-.48 1.51-1.51 1.52-.41 0-.42-1.73-1.52-1.3-.97 6.12-.77 12.24-.85 18.41-.12 8.99-.69 18.87 2.17 27.66.74 2.27 1.99 4.03 2.62 6.25 5.98.21 12.8.3 18.67 1.47 4.66.92 9.02 4 13.98 4.21 2.4.1 4.71-.75 7.13-.43l-4.12-39.39c-2.38 7.95-3.81 16.08-4.17 24.39-.47 1.46-3.41.38-4.42-.22s-1.57-2.05-2.88-2.1c-.2.22.57 2.11.84 2.41 1.14 1.27 5.42.41 1.47 3.15-8 5.54-6.62-5.03-9.24-6.66-2.01-1.26-8.52 4.76-5.2-4.95-5.21.55-1.02-1.91.42-3.68-1.85-3.72-11.83-3.69-9.02-9.04 1.04-1.97 7.31-6.75 9.45-7.86s11.45-5.24 13.42-5.63c.76-.15 2.15-.41 2.82-.22.62.17-.3 1.61.87 1.32 1.29-.32 3.98-2.99 5.83-3.04Zm.01 1.76c-.59-.6-7.55 4.38-8.65 4.98-3.36 1.86-10.33 4.06-12.72 5.9-.57.44-1.51 1.65-1.58 2.35-.24 2.51 6.21 8.08 7.45 10.49.68.4 5.74-.76 5.96-1.47.34-1.11-3.9-7.25-3.45-9.26-1.52.97-2.83 2.41-2.59 4.33 3.78-2.74 2.43.28.87 2.4-3.33-1.14-4.99-.22-3.12-4.42.68-1.52 3.43-5.1 5.14-5.26s2.13 4.6 2.61 5.9c2.33 6.38 4.95 7.01-3.76 9.39 1.19 1.97 5 8.17 7.14 8.45.88.12.57-.06.65-.64.51-3.77.31-7.67.99-11.57 1.22-6.99 3.57-14.55 5.07-21.55Zm-8.65 2.6-6.18 1.82-2.48 2.5c3.03-.53 6.45-2.21 8.66-4.32m-17.32 7.78c1.31 1.04 4.94-2.42 4.32-3.03-1.67.77-3.42 1.24-4.32 3.03m-1.3 1.3c-.47-.3-4.59 2.57-3.06 4.9.43.66 5.47 2.46 6.92 3.57 2.39 1.84 2.49 4.83 5.67 4.07l-6.93-9.73c-.39-1.11-2.46-1.45-2.81-1.93-.13-.18.3-.83.22-.88Zm11.21 14.33c-.31-.27-1.94.07-2.55-.05.24 2.1.65 3.59 3.03 3.03.14-.13-.35-2.87-.48-2.98m-6.44 4.28c2.83.39 3.36-1.09 1.51-3.02-.86-.41-1.39 2.51-1.51 3.02m11.68 6.5c-3.06-.3-2.69-3.6-3.67-5.64-.87-1.81-2.18-1.73-1.65.35.16.64 2.08 5.92 2.35 6.1.38.24 2.9.06 2.97-.81M292.46 433.34c-.57 1.78-2.73 2.42-3.05 4.52-1.04 7.91-5.75 17.24-6.81 24.79-.27 1.91.7.25 1.2 1.41-.45.07-1.14.21-1.47.47-2.01 1.63-4.91 16.77-5.89 20.09.04.82 11-2.94 12.02-3.13 1.65-.31 3.82-.72 5.3.1l-17.96 5.42c-2.18 6.13-2.47 14.05-4.67 20-2.89 7.8-11.25-.02-14.6-3.56 2.18.67 3.51 2.59 5.5 3.81 5.47 3.35 6.85 3.19 8.57-2.94 1.44-5.12 2.09-10.7 3.66-15.83l-.64-.64c-7.67 2.24-14.96 6.04-22.28 9.33-.72.51-.31.42-.01.85.87 1.31 2.71 2.21 3.47 3.68-2.06-.27-3.45-4.17-5.63-3.71-6.77 3.27-13.71 6.17-20.5 9.4-14.88 7.09-28.84 15.51-44.53 20.83-4.98 1.69-10.15 2.71-15.05 4.65-.1 1.14-.04.71.66.84 6.18 1.15 12.41 1.02 18.6 1.75 10.73 1.27 9.21 5.43 16.04 11.24 2.26 1.92 5.83 4.78 8.86 4.34.87.83-2.64 4.06-3.89 3.46.35-.77 1.81-1.57 1.24-2.54-.16-.28-4.67-2.67-5.54-3.33-.73-.55-1.71-1.33-2.4-1.93-3.11-2.7-5.84-8.01-9.41-9.21-2.09-.71-5.22-.89-7.49-1.16-3.72-.45-17.46-2.22-20.14-1.53-2.01.52-5.44 2.94-7.91 3.79-.82.28-.93.61-1.6-.31l7.35-4.33-2.59-1.08c1.4-.33 3.1.41 4.35.24s3.09-1.51 4.51-1.99c8.22-2.76 16.33-4.66 24.46-8.01 11.62-4.8 23.07-11.56 34.49-17.02 5.77-2.76 11.99-4.92 17.64-7.9 1.01-.54 2.93-1.21 2-2.11.99.31 1.4.3 2.38.03 4.56-1.22 13.05-5.95 17.97-8.04 2.02-.86 4.17-1.56 6.22-2.34 1.68-6.87 4.4-13.52 5.89-20.39-20.76 7.08-41.66 14.01-62.02 22.18-15.12 6.06-29.85 13.67-44.91 19.59-10.56 4.15-22.53 5.94-31.16 13.64 9.22-1.09 16.87-7.59 25.25-10.9 15.14-5.98 29.27 7.77 43.25 2.99 10.9-3.73 12.56-25.33 29.36-21.34.51.12 2.08.47 2.14 1.1-5.12-1.08-9.91-.17-13.99 3.11-6.05 4.86-8.38 13.92-15.76 17.14-13.76 6.02-27.41-6.53-40.72-3.05-8.39 2.19-16.49 8.56-24.66 11.27-2.5.83-5.9.88-7.79 1.73-1.53.69-4.32 4.85-4.66 4.85-2.07.05 1.17-4.02 1.51-4.53-.17-.81-4.27-1.01-5.19-1.09.09-2.37 4.19-.45 5.87-.41 2.11.05 4.99-3.02 6.98-4.26 8.29-5.2 16.09-6.73 25.04-10.03 11.26-4.15 21.82-9.65 32.82-14.37 25.65-11.01 52.06-20.16 78.63-28.73 1.29-.83 2.43-5.73 2.93-7.46 1.24-4.3 3.81-20.87 6.31-22.91.69-.56 1.63-.59 2.47-.56ZM414.55 174.48l-.43 5.63c3.58-.69 7.73-.59 10.79 1.54 7.8 5.43 7.04 14.9 6.13 23.27l4.29 3.11c-4.07 1.51-4.59-.83-5.19 4.33-1.24 10.81.45 21.55 1.72 32.24-2.13.16-2.67-2.59-3.9-4.1-2.45-3-4.8-3.42-7.49-5.5-3.62-2.79-2.72-5.23-4.1-8.88-2.1-5.54-4.8-1.69-8.77-2.92-3.43-1.06-2.08-5.98-2.58-8.17-.08-.34-.82-.33-.87-.51-.38-1.38.98-1.02 1.24-1.78.73-2.11.2-4.52-2.09-5.14.37-.66 1.26-.52 1.7-.88.82-.66 1.46-8.59 1.95-10.6.82-3.42 2.56-6.68 3.27-10.15-1.01.23-6.37-.77-5.2-2.38.31-.43 6.65-2.49 7.25-3.14.5-.54 1.31-4.69.97-5.09-6.86 1.95-13.99-.01-21.01.41-3.4.21-7.29 1.4-10.79 1.32-5.9-.14-11.01-3.61-15.38-7.15.93-.1 2.52.94 3.33 1.43 11.56 6.92 10.39 4.29 22.84 3.53 5.25-.32 11.2.92 16.05.47 2.15-.2 3.98-1.32 6.26-.89Zm15.13 30.29c2.6-9.55.44-24.61-12.32-23.79-.75.05-3.31.5-3.83.82-.62.37-.83 1.7-.07 1.76.8.06 4.45-1.65 6.09-1.73 4.75-.24 2.71 4.93 3.32 7.92.2.98 1.12 2.11 1.43 3.33.41 1.64.63 4.99 1.16 6.22.33.78 1.14.65 1.21.74.11.14-1.15 1.47-.8 2.71.25.89 3.22 2.44 3.82 2.03Zm-18.16-22.06c-.81-.2-1.32.2-1.97.42s-1.79.33-1.49 1.3c1.5-.06 3.1-.03 3.46-1.72m9.95 4.32c.12-1.02.02-3.52-1.15-3.85-.46-.13-7.89 1.88-8.27 2.22-.78.72-3.33 8.79-3.71 10.36-.86 3.59-1.43 7.03-1.16 10.75.37.37 9.31-.2 10.59-.45.93-.18 4.94-2.55 3.93-3.88-2.55-1.92-6.01-4.66-6.31-7.98-.37-3.99 1.33-8.82 6.08-7.17m0 11.91c-.15-2.98 0-6.1 0-9.09 0-1.74-2.69-2.69-4.03-.53-2.11 3.39.11 9.55 3.82 10.69 1.31.4.21-1 .21-1.08Zm3.03 2.81c-.09-2.26-.11-5.66-1.73-7.36.64 1.89.29 3.81.56 5.73.1.69.08 1.95 1.17 1.63m.43 4.33c.11-.81 0-1.5-.86-1.73v1.73zm4.34.86c-.49-1.15-1.92-1.37-3.03-1.29-.05 1.74 1.88 1.29 3.03 1.29m-6.93.88c-1.83.11-2.64-.66-4.34.2-.64.32-1.06 0-.85 1.09 1.48-.3 3.11-.25 4.55-.43.78-.1.71.17.65-.86Zm-9.53.86c-3.58-.77-7.35-1.59-5.86 3.48.68 1.19 6.07-1.58 5.86-3.48m16.4.05c-.87-.08-2.15-.92-2.76-.06-.8 1.12-1.67 10.33-2.68 12.91-.49 1.26-1.39 2.16-2.85 1.75-.35-.1-4.58-3.31-5.65-3.91-1.32-.74-6.88-3.69-7.96-3.76-1.65-.1-1.4 5.68.4 6.55 3.04 1.45 4.73-1.96 7.71.52 3.82 3.18 1.38 8.34 6.51 12.1 2.78 2.04 6.17 2.97 8.19 6.31-1.15-10.82-1.91-21.55-.91-32.41m-4.71 2.54v-2.59h-.42v2.59zm-2.16-.43c-1.19-.04-2.57.06-3.69.42-.44.14-.81-.29-.64.66.24 1.39 3.05 4.92 4.34 5.84v-6.93Zm-.44 11.26c.82-.88-4.47-9.18-5.63-9.76-1.38-.68-6.79 1.44-8.66 1.54l14.28 8.22ZM761.57 424.41c2.31 2.88 3.33 4.69 2.66 8.61-.22 1.3-1.8 3.44-1.57 4.34.07.28 3.14 3.6 3.76 4.5 3.47 5.05 3.95 9.97 4.4 15.94.75 9.77.33 19.7.85 29.45.24 4.59 1.58 9.21 1.31 13.83-.14 2.5-1.07 5.31-1.29 7.8-.96 11.04 2.93 25.38-2.25 35.41-1.7 3.29-5.24 6.04-4.69 10.25-6.54.83-14.57 3.79-20.22 7.27-4.99 3.08-8.26 7.38-12.25 11.56l-1.29.21c-.79-3.99.28-4.87-4.44-4.21-4.33.6-10.68 5.69-13.94.73-2.22-3.38-1.64-6.85-.23-10.36 1.01.43-.34 2.23-.45 3.23-.39 3.35 1.31 7.81 5.3 7.5 4.53-.35 14.18-7.67 14.84 1.38 3.04-2.53 5.15-6.08 8.22-8.67 5.89-4.96 15.54-8.72 23.1-10.02.83-4.08 3.78-7.22 5.35-10.89 4.43-10.39.53-21.46 1.2-32.13.17-2.68 1.12-5.6 1.31-8.21.43-5.92-1-11.17-1.31-16.86-.55-9.89-.09-19.97-.85-29.88-.46-6.07-2.11-12.77-7.56-16.24-1.37 2.61-4.39 5.65-4.88 8.55-1.06 6.28 2.46 10.31 4.43 15.71 2.79 7.63 4.73 18.69 2.27 26.48-2.21 6.99-7.71 13.33-12.21 18.95-.68-.38.14-.98.39-1.35 2.96-4.51 6.88-8.55 9.37-13.58 4.05-8.19 2.79-18.96.21-27.5-1.74-5.77-5.97-10.69-6.28-16.88-9.94 11.78-13.37-1.38-14.72-10.39l-1.41 2.69-2.91 10.29c.18-4.53 1.36-8.83 2.7-13.1 1.1-3.52 1.56-6.18 2.52-9.6 1.27-4.51 6.92-12.89 12.28-12.36 1.52.15 7.13 6.04 8.31 7.52Zm-4.16-2.33c-3.21-4.86-5.98-4.08-9.96-.65-3.15 2.71-4.84 6.13-5.62 10.17l5.42-5.18c3.04-2.17 6.28-4.29 10.16-4.34m4.31 14.29c.15-.1 1.14-2.92 1.22-3.35 1.12-6.51-3.94-10.96-10.15-8.42-3.08 1.26-10.89 8.32-11.37 11.58-.43 2.97 1.61 12.24 3.44 14.68 1.24 1.65 2.16 2.4 4.21 1.61 1.47-.56 5-4.43 5.84-5.85 1.15-1.94 3.2-9.12 4.46-10.27 1.01-.92 2.04.23 2.36 0ZM713.63 226.92c.33.22.84 4.09 1.65 4.28 1.25.67 8.07-1.18 8.36-.88.11.12-.07 1.31 0 1.73l-7.79.44c1.82 6.72 2.88 13.61 3.46 20.56.99 11.9-.15 21.19-.86 32.9-.82 13.39.05 26.47.02 39.84-.03 9.63-.67 19.77-.47 29.43.02.93.49 1.85.48 2.6-.04 1.77-1.92 3-2.21.43-1.17-10.47.42-24.35.47-35.07.04-8.23-1.25-16.62-.9-24.71.84-19.63 3.78-36.14.32-56.13-.25-1.43-1.8-9.05-2.74-9.38-5.3-.32-10.67.24-15.96-.06-7.16-.41-13.78-1.96-21.21-2.16s-15.78-.22-22.94.44c-1.65.15-11.57 2.06-12.13 3.02-1 1.69.91 11.03 1.08 13.65 1.11 16.36 1.47 35.96.89 52.39-.19 5.28-1.31 11.25-1.34 16.42-.01 1.81 1.2 8.72.05 9.56-.42.31-.86.19-1.32.19.14-4.68-.19-9.4-.02-14.08.72-20.35 1.6-41.56.01-61.88-.34-4.29-1.67-9.25-1.74-13.44s3.05-4.74 6.5-5.61c9.07-2.28 25.34-2.49 34.85-1.94 10.78.63 21.78 4.14 32.67 1.7l-.85-4.3c.49.07 1.33-.17 1.67.06M574.07 222.1c-6.36.75-13.62 4.53-20.77 4.79-4.28.16-2.84-1.55-4-2.2-.55-.3-3.81-.64-4.01-.43-.13.14.43 3.14-1.08 3.35-2 .29-1.35-4.04-1.52-4.22-.19-.19-4.22-.69-5.29-.99-1.68-.47-6.47-2.63-7.71-1.82-.3.2-.35.99-.64 1.09-1.64.56-.76-1.18-1.32-1.34-3.42-.97-13.78 2.9-17.95 2.63-.74 3.31 4.42 4.61 2.36 7.34-1.62 2.14-2.25-.44-2.35-2.14l1.3 1.73c1.83-.64-.72-1.94-1.5-3.06-.6-.86-1.21-2.9-1.65-3.32-1.09-1.05-4.04.05-4.65-1.2.2-2 3.7-.17 4.29-.68l1.98-26.81.66 5.63c1.56-1.42 5.31-2.73 6.94-1.11s.28 2.79.41 4.31c.02.23 1.26 4.29 1.4 4.48.7 1.02 3.94 1.15 5.09.53.19 1.4-.58 2.55-1.25 3.69l1.54 1.02 2.94-4.29 1.75-1.28c.32 3.17 2.33 1.75 2.79 2.18.16.15.5 3.68.45 4.31.53-1.21 4.17-1.98 4.32-2.17.17-.21-1.54-1.62-.48-2.85.94-1.09 6.27-1.44 7.41-.4.61.55.06 1.59.85 1.52.47-3.09 1.27-8.27 5.2-8.22.13 4.17-1.38 8.12-.88 12.35l1.31 8.42c.1-1.91 1.77-3.83 2.07-5.51.57-3.21 1.46-8.88 2.91-11.82.28-.58 1.17-.64 1.53-1.17.59-.85.65-2.82 2.15-2.71l.87 10.82c5.22-4.73 9.27 2.47 9.54 7.35 1.31.41 1.87-.77 3.01-.85l-1.73 2.59c2.79-.04 5.39-1.24 8.22-.87l-.87-5.19-3.89 1.95c.95-.49 4.43-4.48 5.19-3.68l1.3 8.22c-2.01.17-4.32-.23-6.28 0Zm-57.86-19.12c.28-.45.18-2.83-.35-3.21l-2.62.26c.99.74.69 2.81 1.28 3.27.38.3 1.57-.14 1.68-.32Zm32.54.07c-.75-.15-1.11.37-1.49.88-1.1 1.47-2.4 10.19-2.43 12.31-.01.77.36 5.96.52 6.22.13.21 1.51.49 1.9.51.9.04.5-.11.69-.62 1.1-2.84-.29-4.49-.48-6.98-.32-4.17.09-8.34 1.29-12.33Zm-37.23 3.03c-.18-.18.52-2.92-1.29-2.6l-.87 18.18c9.85.39 3.88-9.94 3.9-15.58-.42-.11-1.6.14-1.73 0Zm46.7 9.05c.38-.45-.24-5.6-.44-6.61-.1-.48-.12-1.62-.81-1.57l-2.17 8.65c.18.17 3.26-.29 3.41-.48Zm-41.5 3.07c.79.58 4-3.62 3.84-4.49-.2-1.04-2.66-1.22-3.19-2.44-.68-1.56.59-3.75-2.38-3.89-.35 3.73 1.19 7.2 1.73 10.82m-.01 2.16 11.28-1.48c.51-.36 1.4-8.42 1.06-9.34-.38-1.04-.47-.34-.77.11-.44.66-1.01 1.43-1.38 2.09-.39.72-1.02 2.88-1.15 2.97-.63.45-2.94-.97-3.86-.19l-5.2 5.84Zm25.92-10.75c-.61-.61-5.57-.15-5.57.16 2.76 3.27.46 8.09 2.24 11.18.53.92 2.17 1.17 3.18 1.17s.51-.04.64-.67c.35-1.68.31-11.06-.48-11.84Zm-21.16 2.53c.98-2.05-1.16-1.76-2.59-2.17-.48 1.86 1.39 1.41 2.59 2.17m46.76 10.39c.16-.22-.67-.66-.74-1.14-.07-.45.26-1 .18-1.55-.51-3.65-.93-6.61-4.79-8.09-2.41 1.57-3.06 4.45-4.83 6.44-.53-.2-.03-1.54-.21-1.73-.13-.14-3.62-.05-3.83.07-.45.28-3.61 8.29-2.24 9.27 2.03 0 15.83-2.42 16.46-3.28Zm-31.61-9.09c-1-1.03-4.57 2.93-5.22 3.24-.97.47-2.07-.87-1.71 2.38l7.79 1.73c-.93-2.35-.94-4.87-.87-7.35ZM535.27 292.28c.86.53 4.04 17.37 4.33 19.69.64 5.21.39 10.56 1.36 15.74 8.62-.33 16.16-3.81 24.23-6.05.15.11-.23.48-.42.66-1.04 1.01-10.64 4.3-12.55 4.76-3.24.79-7.52.73-10.53 2.02-1.38.59-2.73 2.45-3.56 2.51-.68.05-1.4-.47-2.14-.43-2.15.11-5.39 3.24-7.16-.44 1.07.1 1.94.74 3.05.25l6.91-2.84c-4.84-.44-9.48.69-14.28.86-.44 1.68 1.62.21 1.73 1.29-3.13-1.44-4.45 8.01-3.89 8.66.89.35 1.59-1.26 1.95-1.29.9-.08.13 1.82.26 2.28.8 2.87 14.23 2.25 14.23 3.56 0 .73-5.44.99-6.58 1.21-5.37 1.02-10.07 3.53-15.49 3.77.01-1.61 2.16-1.29 3.48-1.92 1.47-.7 3.77-2.02 4.74-3.26-2.27-1.02-2.41.82-4.33.86.25-3.39-1.24-2.71-3.27-4.33l.67-1.3c-1.56-.17-3 .45-4.43.98-8.93 6.41-21.02 6.12-30.6 10.98.52 1.78.46 4.14-1.77 3.19l.43-3.03c-.68-.7-10.79 2.97-12.55 2.59.96-2.51 10.84-3.34 11.5-4.3-.35-3.33 1.92-6.4 2.32-9.37.77-5.83-.81-13.28 3.29-18.36 1-.23.72.92.62 1.48-.76 4.01-1.5 7.03-2.14 11.28-.73 4.84-1.8 9.67-2.16 14.5 7.57-2.44 16.4-3.66 23.79-6.29 4.68-1.67 9.69-4.9 14.31-6.9.52-.5.57-1.52.45-2.17-.11-.55-1.87.38-1.26-1.25.47-1.25 2.1-1.05 2.54-2-1.7.02-3.69.44-5.29.98-1.91.65-5.25 3.64-6.2.77-.83-7.67.46-15.96-.25-23.56-.44-4.63-2.62-7.18-4.71-11.09 1.52-.56 2.25 1.2 3.25 1.3 1.13.11 3.8-.8 5.2-.87 2.56-.13 5.29.2 7.8.01 1.75-.13 9.75-.96 10.37-2.19.37-.72.53-4.34 2.76-2.97Zm3.47 34.09c-.19-10.03-.56-20.23-4.27-29.64l-23.37 2.44c-.5 3.02 1.05 5.42 1.29 8.4.65 8.21-1.69 16.32-.44 24.47 8.05-4.75 17.82-4.29 26.79-5.67m-18.57 11.31c-.14-.16-1.55.32-1.73.65.97 1.54 2.51.24 1.73-.65M538.35 234.22c.3.24 1.6 6.38 2.18 7.36l19.22-5.57c.6-3.96 1.24-.41 3.28-.48-2.9 5.15 2.67 2.04 5.02 1.78 2.77-.31 3.42.65 5.19.82 1.08.1 2.08-.52 3.37-.41 5.11.43 2.24 6.95 2.01 10.16-.36 5.12.53 9.96 1.5 14.93.51 2.58 3.22 9.62 1.42 11.57-1.37 1.49-1.56-1.27-3.16-1.61-3.47-.73-10.16-.87-13.42.41-1.58.62-5.78 4.01-6.95 1.74-.57-1.11 1.88-2.56 2-3.69.08-.83-1.02-2.76-1.2-3.99-.81-5.44 2.16-12.7 2.5-18.48.08-1.41.19-6.94-.4-7.77-.43-.61-3.53.16-3.5-.9.02-.81 5.54-.83 1.98-2.8-2.21.65-17.37 4.73-17.94 5.67-.7 1.13.18 1.28 1.02 1.26 4.59-.11 16.42-5.21 17.87 2.04.84 4.22-5.35 19.43-6.95 24.45-.67 2.1-.1 5.29-3.12 5.14-1.92-.1-2.63-1.3-5.53-.8s-3.87 2.79-5.51 3.58c-3.28 1.57-.92-7.13-.85-8.64.26-5.34.71-16.73-.05-21.63-.54-3.52-4.67-.87-4.33-3.49.16-1.28 3.6-1.52 3.86-2.63.1-.44-1.82-9.78.5-7.97Zm38.43 15.91c.61-.57.99-8.57 1.67-10.09-.21-1.36-2.65-1.1-3.72-1.06.28 1.26 1.25 1.97.86 3.46l-3.7-3.04-9.1 1.28c.03 2.4.38 4.74.25 7.16-.37 6.79-3.2 12.92-2.56 19.88.21 2.26 1.99 3.91-.47 6.31.38.31 3.53-1.66 4.34-1.93 5.51-1.89 10.82-.94 16.44-.23-1.3-3.37-1.68-9.74-3.12-12.69-.41-.83-1.58-.49-1.22-1.81.04-.16.87-.24.89-.44.14-1.16-1.92-2.57-2.17-4.36-.38-2.8.89-1.79 1.6-2.45Zm-25.87 24.78c.44-6.53 9.44-22.59 8.04-28.14-1.22-4.84-5.61-3.51-9.42-2.9-2.62.43-9.16 1.12-8.14 4.64l-1.73-2.16c.41 10.12.66 20.27-.87 30.3.31.33 3.27-1.98 4.01-2.26 2.91-1.1 5.46-1.12 8.1.53ZM241.81 108.25c-.81.77-3.32-1.75-4.52-2.19-1.44-.53-4.57-1.08-6.14-1.22-2.09-.18-13.43.31-14.01-.49-1.16-1.61 2.49-.84 2.79-.84 6.17 0 12.43-.49 18.41 1.28l-.43-4.76c-1.63.49-2.86 1.76-4.65 2.06-8.63 1.47-13.28-6.09-12.2-13.93.35-2.53 2.15-4.07 2.99-6.31-.54.17-3.58-.2-3.46-.65.26-1.49 2.03-1.06 2.5-1.62.11-.13 1.09-3.25.96-3.36l-5.16-.4-1.35 13.58c-.29 3.35.83 6.49.02 9.76-1.21 1.25-1.7-4.32-1.75-4.96-.41-6.19.73-12.39.48-18.58-8.12-2.43-.3-2.17-.02-2.43.73-.69-1.38-6.41.22-6.92 2.75-.88 1.37 7.36 2.35 8.03l20.62 4.49c.43 3.53.09 7.11.17 10.65.09 3.89-.1 9.68.56 13.29.17.94 1.83 5.32 1.62 5.52m-14.71-30.3c-.29-.27-1.72.2-1.72.65-.01 1.29 2.55.12 1.72-.65m10.39 8.66v-6.28c0-.79-5.16-1.32-6.06-1.51.82 1.14-.37 1.55-.44 2.37 3.25 1.1 2.75 4.8 6.5 5.42m-11.71-2.16c-3.2.09-2.86 6.53-2.54 8.83 1.45 10.48 16.62 10.4 14.65-1.67-.19-1.19-1.15-2.06-1.28-3.27l-2.34 2.2c-.47.76-.76 2.5-1.33 3-2.57 2.23-1.65-1.44-2.15-2.19-.34-.51-1.83-.49-2.6-1.3-.82-.86-2.09-5.37-2.42-5.6Zm4.34 2.59s-.91-.16-.85.21c.56.62.37 1.77 1.29 1.95.13-.17-.34-2.07-.44-2.16M587.17 497.3c-.64.68-2.25.45-2.71-.32-1.02-1.69.83-2.85.48-4.33-.21-.9-4.26-6.75-5.06-7.54-4.12-4.02-14.21-10.89-19.31-14.03-3.36-2.07-10.5-4.8-12.8-6.99-.49-.47-.83-1.04-.75-1.75l4.33.86c-1.29-3.05 3.29-.84 4.96-.85 10.76-.07 26.16-4.57 36.03-.52 7.51 3.08 14.73 8.45 21.65 12.55 1.27.76 6.22 2.8 6.66 3.3.56.65.51.7 0 1.34-.84 1.03-4.75 3.58-6.08 4.32-7.98 4.4-17.92 6.62-26.16 10.64-1.12.63-.46 2.5-1.23 3.32Zm5.3-6.82c.75.8 17.98-7.37 20.51-7.84.92-.63 5.28-2.96 5.03-4.06-4.79-2.75-9.21-6.18-14-8.96-5.85-3.4-13.61-7.86-20.42-8.06l-20.56 1.65c-.22 1.29 1.92 1.12 2.9 1.64 2.62 1.4 2.72 3.96 4.28 6.11 4.72 6.49 14.55 3.88 21.39 3.94l-5.82.88c-5.87-.16-12.24 1.16-16.24-4.14-1.1-1.46-1.4-3.14-2.24-4.26-1.94-2.59-10.97-3.22-14.22-3.3 5.09 4.6 11.85 6.55 17.29 10.63 4.38 3.29 7.47 8.03 12.42 10.52 2.13 1.07 8.03 2.68 9.42 3.91.51.45.18 1.24.27 1.33Zm-.43 0-9.95-3.9c.75 1.16 3.54 6.22 4.61 6.42l5.35-2.52ZM332.75 346.31c.66.56 4.12-1.33 4.89-1.78.41-.24 2.26-2.27 2.03-.58-.34 2.44-3.96 4.64-5.85 5.84l1.08-2.16c-2.62-.45-2.37 3.64-2.62 3.87-.17.17-2.9-.06-3.66.03-6.62.74-13.49.11-19.45.9-2.53.33-6.12 2.16-8.82 2.87-4.01 1.06-11.69 1.82-14.38 4.67-.99 1.05-2.54 3.88-1 5l4.46 1.26c-5.14.21-8.99-1.79-4.95-6.9.54-.68 1.64-.99 1.85-1.61 1.07-3.08-4.35-18.31-5.34-22.65-1.11-4.87-1.64-9.87-2.81-14.72 3.58.89 7.37-.19 10.91-1 8.89-2.02 19.68-5.15 28.38-7.98 5.56-1.81 11.04-3.85 15.68-7.47 1.35 4.93-.45 10-.86 14.94-.75 9.15-1.6 18.45.45 27.47Zm-10.2.89c2.68-.27 5.72.2 8.44 0-.17-6.59-.81-13.45-.45-20.15.37-6.84 2.18-13.68 1.96-20.55-1.39-.09-6.26 2.97-8.01 3.68-8.86 3.58-18.69 5.13-27.89 7.61-5.42 1.46-10.61 3.97-16.26 4.3.45 9.62 3.89 18.21 6.28 27.26.31 1.15.92 6.08 1.14 6.43.12.2.97.32 1.29.28 4.67-2.16 9.47-3.45 14.5-4.49 1.85-.38 4.11-.28 6.16-.76 4.05-.95 8.56-3.18 12.83-3.62Zm8.44 1.73c-5.28-.3-10.54-.4-15.58 1.51.49.72 1.18.62 1.92.67 4.33.32 8.62-.9 12.94-.96zM584.62 288.7c-.23.14-1.25.23-1.24-.16 1.95-5.76 1.59-12.52 1.72-18.63.33-15.22-2.02-30.59-2.6-45.85-.81-21.25 1.17-41.8 3.92-62.78.3-1.79 1.84-1.06 2.05.33-1.31 11.54-3.62 23.1-4.24 34.71-.84 15.8.86 30.3 1.77 45.88.26 4.44-.28 8.98-.01 13.43.58 9.56 1.35 16.97.37 26.79-.09.93-1.24 5.96-1.74 6.26ZM532.73 276.64c-8.72-.54-16.48 4.27-24.68 6.06.63-1.34 1.54-2.06 1.74-3.66.52-4.18-.78-11.52-.89-16.01-.11-4.14-.21-8.92 0-13.02.26-5.12 1.62-10.2 1.32-15.35 1.62-.55 1.85 1.4 2.25 1.64 1.1.66 4.58-1.13 5.96-1.44 2.83-.64 8.6-.72 11.39-.11.57.12 1.58.69 1.82 1.2 1.12 2.35-1.9 10.15-2.33 13.25-.9 6.47 0 15.47 1.37 21.91.41 1.94.79 3.97 2.05 5.52Zm-2.61-1.32c-2.14-10.01-3.61-19.32-1.59-29.5.37-1.85 2.44-7.76 1.83-9.01-.46-.93-5.23-1.32-6.5-1.34-2.46-.03-4.8.82-7.15 1.34 1.29 2.31 7.73-.83 8.9.83 1.36 1.93-2.25 4.15-3.27 5.44 2.34.74-.89 2.59-2.34 1.54-1.96-1.43 5.5-3.94 4.5-6.08-2.47-.14-4.65.57-7.16.45-5.19-.25-5.32-3.09-6.21 3.28-1.34 9.65-.43 18.12-.03 27.63.15 3.51-.02 7.12-.02 10.62l19.04-5.21ZM654.36 507.78c-.62.43-4.16-2.02-5.08-2.46-8.97-4.25-15.95-5.46-24.86-8.47-6.15-2.08.95-4.01 3.42-5.43 5.88-3.4 17.12-10.45 21.79-15 .55-.54 1.4-1.06 1.29-1.95-.17-.22-3.96-.32-2.6-1.73.67-.7 5.95 1.39 7.18 1.7 4.02 1.02 16.46 3.09 19.02 5.22 1.17.97 1.73 1.96 1.32 3.47-.66 2.44-7.39 7.59-9.56 9.95-1.87 2.04-3.72 4.78-5.62 6.94-2.17 2.47-5.36 4.42-6.3 7.77Zm15.78-21.02c4.31-4.28 7.56-5.96-1.03-8.2-4.88-1.28-10.42-1.59-15.31-3.13-5.34 3.71-10.59 7.63-15.99 11.25-4.39 2.93-8.92 5.63-13.3 8.56 10.04 2.02 19.46 6.04 28.7 10.35 6.15-5.87 10.92-12.85 16.94-18.82ZM535.28 491.83c.12.07.87 2.02 1.19 2.49l3.61 4.82c-.79-.69-2.2-1.22-2.88-1.88-1.41-1.39-1.4-3.94-3.4-2.02-2.68 2.56-10.32 12.71-12.12 16.01-9.47 17.38 7.4 12.22 17.31 11.68 10.76-.58 20.99.36 31.3 3.37 1.06.31 5.58 2.28 5.89 2.22.82-.16 2.65-3.74 2.82-4.57s-.9-.27-.83-1.17c.05-.67.52-2.19 1.31-2.43-.56 3.06.99 1.87 1.29 2.18.97.99-5.01 10.81-6.91 9.08-.43-.39 1.13-1.9.86-2.59-3.08-.87-6.12-1.93-9.25-2.66-8.83-2.05-18.71-2.79-27.76-2.1-5.04.38-17.99 3.89-19.93-3.45-2.09-7.92 9.53-18.65 13.83-24.72.68-.96 2.14-5.11 3.67-4.24Z"/><path fill="currentColor" d="M602.36 509.47c-5.19 3.58-11.05 6.75-14.01 12.6l-2.15 5.2c-.84-.71-.63-1.86-1.14-2.76s-1.75-1.29-1.67-2.43l2.59 1.73c1.26-3.41 3.54-6.7 6.3-9.08 1.89-1.63 6.32-3.83 7.57-5.42.34-.43.65-.43 0-.88-2.42-1.62-11.51-2.7-15.14-3.91-12.63-4.2-26.03-11.21-38.75-15.36-3.29-1.07-5.47-1.17-8.67-1.72-1.66-.28-1.42-1.57.42-1.76 4.67-.47 13.65 4.67 18.3 6.42 5.64 2.12 11.46 3.75 17.11 5.84 4.16 1.54 8.11 3.9 12.46 5.29 2.8.89 15.57 3.31 16.67 4.98.24.36.35.89.14 1.26ZM297.66 243.31c1.7-.32 2.67 1.02 3.64 2.2 2.82 3.41 4.87 8.68 7.18 12.51-.47.46-1.84-1.16-2.15-1.52-2.43-2.84-3.98-6.51-6.5-9.3-.77 6.88.04 12.73-1.86 19.57-.41 1.46-1.17 6.02-2.91 4.88-.02-.28 0-.55.03-.83.33-2.64 2.57-6.64 2.57-9.56V243.3ZM420.17 373.6c2.18-3.17 4.79 1.29 7.92-.09 8.28-5.44 19.57-6.37 28.11-9.98.62-.26.98-.71 1.41-1.18.59.92 1 1.44-.09 2.08-2.22 1.29-6.18 1.87-8.79 2.9-5.97 2.37-17.27 8.29-23.6 7.59-1.81-.2-3.01-1.72-4.97-1.31ZM535.76 466.66c-.73 1.05-16.69 2-19.04 1.74-.15-1.79.88-3.39 2.16-4.54-1.91-1.41-4.04-1.33-6.05-.22-1.42-3.3 2.51-1.86 4.56-2.14.97-.13 1.45-.74 2.17-.87 2.2-.4 11.22 1.86 13.48 2.93.85.4 3.54 1.95 2.73 3.1Zm-1.73-.86c-.84-1.74-12.45-3.88-12.99-3.45 1.5 2.41-1.44 2.69-2.16 4.75zM564.77 456.28c-.19-.18.29-1.89.52-2.29.38-.67 6.75-5.41 8-6.29 2.15-1.52 4.43-2.57 6.63-3.97-.22 1.36.65 2.79.45 4.09-.6 3.81-9.9 5.12-12.45 6.63-.69.41-2.1 2.82-3.14 1.83Zm13.42-8.65c-.79-.15-1.44.48-1.29 1.29zM357.83 318.19c-1.24.21-.72-.27-.92-1-1.64-5.83-1.5-11.46-2.72-16.78-.51-2.2-3.03-4.2-3.51-6.02-.38-1.44-.17-2.89-.2-4.34 1.35.62 1.13 2.69 1.63 3.77.98 2.09 3.33 3.42 3.62 5.9l2.1 18.46ZM718.02 550.21c-.21-.7 1.21-2.68.86-3.03-.22-.22-1.57.52-1.3-.65 3.38-2.73 4.8-6.84 7.35-10.18l-6.92 13.85ZM318.44 450.66c.11.12-.07 1.3 0 1.73-3.94-.42-6.8 1.93-10.39 2.6.58-.91 2.95-2.54 3.9-2.84.71-.23 1.41.13 2.06-.06.75-.22 4.13-1.73 4.42-1.42ZM362.59 484.85c.8.67-.57.93-.86 1.06-2 .92-3.92.67-6.07.67.24-2.13-.68-4.01 0-6.06 1.45.8.46 4.15 1.71 5.01.72.5 5-.85 5.21-.68ZM584.68 315.6c.12 1.64-1.63 1.09-2.57 1.54-2.1 1.01-3.7 2.5-6.52 1.92-.2-1.17.21-.75.94-.98 1.27-.4 2.66-.43 3.92-.86 1.49-.51 2.43-1.97 4.22-1.62ZM585.54 291.36c-.17 1.77-.19 4.04-.55 5.74-.09.42-.44 1.86-1.17 1.18-.68-.63-.2-6.95 1.72-6.92M531 528.14c-1.09 2.05-4.01 1.99-6.06 2.16l.86-.87-1.3-.43 6.49-.86ZM286.4 382.26c1.07.95-4.72 3.5-5.62 1.51zM447.88 442s.05 1.25 0 1.29c-.06.06-1.21-.03-1.74.2-.88.39-1.46 1.31-2.59 1.1-.28-1.65 3.66-3.29 4.33-2.59M647.46 247.2c-.07-.54-.22-5.38 1.07-4.76s.27 4.38-1.07 4.76M270.82 386.59c-.39-1.79 3.06-1.52 3.02-.65-.92 1.33-1.66 1.12-3.02.65M257.4 391.79c.47.44-.94 1.65-1.43 1.85-1.38.55-3.15-.55-1.37-.97 1.07-.25 1.8-.46 2.8-.88M735.33 525.98c-1.02 1.19-2.3 3.1-3.9 3.45 1.02-1.19 2.3-3.1 3.9-3.45M92.46 205.65c-.67 1.29-2.64 1.31-3.89 1.29-.21-1.34.36-.69 1.1-.84.89-.18 1.9-.18 2.8-.45ZM763.9 419.92c-1.22-.8-1.51-2.98-1.72-4.33 1.14.85 1.41 3.01 1.72 4.33M297.66 365.38c-1.06 1.48-3.61 1.27-5.19 1.29zM522.34 529c-.6.22-2.7-.61-2.16-.86.81-.07 1.9-.12 2.16.86"/><path d="M260.87 388.76h1.29v.86h-1.29z"/><path fill="currentColor" d="M748.76 511.26c-.14-.78.59-1.42 1.29-1.73.14.78-.59 1.42-1.29 1.73M737.06 524.25l-1.29 1.29c-.15-.79.48-1.44 1.29-1.29M713.68 558.87c-.06.06-.28-.02-.42 0-.12-.77.03-1.52.86-1.73.05.34-.33 1.63-.43 1.73ZM672.99 180.98c-.52-2.88.86-3.87 2.38-1.31.87.07.91-5.54 2.59-5.18s-.54 4.72-.18 5.78c.29.87 4.82 1.67 3.03 4.41-1.63 2.49-3.13.05-4.24-.16-.77-.15-1.53.51-2.41.3-.69-.17-1.43-1.54-2.36-2.01-2.47-1.24-6.36-.89-8.34-3.34 3.09-2.68 6.66-.24 9.51 1.52Zm6.93 3.45c-.15-.63-.7-.99-1.3-.86v.86zM299.96 161.8c1.81 1.63 2.12.63 4.44 3.57.51.64 1.75.7 1.49 1.75-2.57-.04-3.12 4.68-4.44 5.96-1.64 1.59-7.69-.44-8.13-.13-.76.54-1.24 7.21 1.74 5.88-.97 1.87-3.28 1.09-4.92 1.35s-11.53 2.54-11.96 2.11c.21-3.32 2.86-5.94 2.16-9.52-1.05.29-2.65.22-3.58.53-.65.22-1.67 1.77-2.48 1.2-.93-.67.34-2.3.41-2.83.25-2.06-.51-7.6-.87-9.91-.21-1.37-1.68-2.86-.43-4.39l23.83 4.14c.49-.48-2.79-4.39-3.02-4.98s.09-.72.65-.65c2.51.34 3.63 4.61 5.1 5.94Zm-20.62-2.32c-1.44-.95-3.66-1.24-3.68.92s.01 4.19 2.3 4.17c1.97-.02 4.53-.68 3.66-3.23-.23-.68-1.22-.59-1.67-.98-.32-.27-.46-.78-.61-.88m20.05 5.48c.05-.82-.46-1.71-1.17-2.07-1.6-.8-12.12-2.28-13.69-1.75-.72.24-1.95 2.33-.51 2.53 1.72.24 3.84-.17 5.63 0 3.19.32 6.43 1.69 9.75 1.29Zm-7.36.44c-1.89-.19-7.97-1.32-8.86.44-1.64 3.23.54 3.41 3.36 2.93zm-11.25-.01c-.25-.26-3.91.83-4.76.43l.43 3.46c1.26-.06 3.85-.26 4.24-1.6.12-.41.18-2.19.08-2.3Zm12.22 5.96c.61.49 5.19 1.15 6.08.88 1.11-.33 3.19-3.77 2.88-4.84-.33-1.14-8.04-1.08-9.49-2 .96 1.4-.32 5.27.53 5.96m-2.27-3.36c-2.84.66-3.85 1.52-.44 2.59zm-9.95 12.55c.58.42 9.25-.96 9.97-1.5.84-.63.35-5.89-.22-6.72-.22-.33-3.8-1.67-4.39-1.71-.64-.04-3.37.61-3.57.91-.32.5-.16 7.61-1.79 9.03Z"/></svg>